<?xml version="1.0" encoding="UTF-8"?><svg xmlns="http://www.w3.org/2000/svg" viewBox="0 0 3414.53222 2825.90378"><g id="a"><rect width="3414.53222" height="2825.90378"/></g><g id="b"><g id="c"><polygon id="d" points="1797.56314 2139.43127 1776.68524 2203.29055 1710.37812 2203.29055 1650.14421 2183.64309 1677.41182 2100.2396 1797.56314 2139.43127" style="fill:#2d74e6;"/><rect id="e" x="1196.06444" y="1533.80473" width="121.2771" height="86.13534" transform="translate(-423.72453 2691.31948) rotate(-84.99863)" style="fill:#2d74e6;"/><rect id="f" x="678.84434" y="1434.75534" width="125.82308" height="89.09337" transform="translate(-894.64236 1725.75092) rotate(-71.9344)" style="fill:#2d74e6;"/><rect id="g" x="806.05091" y="1048.84703" width="123.09738" height="88.99926" transform="translate(-440.89493 1579.1224) rotate(-71.9344)" style="fill:#2d74e6;"/><rect id="h" x="1055.18139" y="1131.08373" width="123.09738" height="87.0516" transform="translate(-346.278 1872.03406) rotate(-71.9344)" style="fill:#2d74e6;"/><rect id="i" x="1193.85178" y="709.18268" width="121.23458" height="86.76568" transform="translate(149.9855 1711.81707) rotate(-71.9344)" style="fill:#2d74e6;"/><rect id="j" x="1111.16041" y="681.99633" width="121.23458" height="87.19285" transform="translate(118.58025 1614.59386) rotate(-71.9344)" style="fill:#2d74e6;"/><rect id="k" x="1058.03854" y="277.01901" width="125.56224" height="85.05372" transform="translate(469.45419 1286.01848) rotate(-71.9344)" style="fill:#2d74e6;"/><rect id="l" x="1884.89788" y="546.3737" width="125.56224" height="85.76417" transform="translate(783.48597 2258.18672) rotate(-71.9344)" style="fill:#2d74e6;"/><rect id="m" x="2198.62527" y="908.27267" width="118.42065" height="108.08483" style="fill:#2d74e6;"/><polygon id="n" points="2198.62529 1122.78008 2198.62527 1016.3575 2317.04592 1016.3575 2317.04592 1160.28543 2198.62529 1122.78008" style="fill:#2d74e6;"/></g><g id="o"><path d="M1620.38129,893.56928l-14.47207,44.36756c-2.0552,6.3007,1.38646,13.07449,7.68716,15.12969l125.40364,40.90491" style="fill:none; stroke:#f1f0ed; stroke-linecap:square; stroke-miterlimit:6.88336; stroke-width:4.13px;"/><path d="M2331.98604,1167.26949l-14.94013-4.98406-118.42062-39.50535-.00002-214.50741h-62.23971l.00005-111.97683c0-5.19365-3.34111-9.79785-8.27873-11.40843l-415.45009-135.51397c-6.3007-2.0552-13.07449,1.38646-15.12969,7.68716l-64.74158,198.48056" style="fill:none; stroke:#f1f0ed; stroke-linecap:square; stroke-miterlimit:6.88336; stroke-width:4.13px;"/><path d="M1954.8417,2234.99061v-25.74257h-98.99649c-8.16117,0-13.94164-7.9707-11.40621-15.72804l132.88021-406.55713,.03895-270.57816-88.96057-7.78519,137.14389-436.54503-223.56614-72.92414-4.53512,13.90347-29.01045-9.4628" style="fill:none; stroke:#f1f0ed; stroke-linecap:square; stroke-miterlimit:6.88336; stroke-width:4.13px;"/><line x1="1954.84169" y1="2637.79264" x2="1954.8417" y2="2274.99057" style="fill:none; stroke:#f1f0ed; stroke-linecap:square; stroke-miterlimit:6.88336; stroke-width:4.13px;"/><polyline points="2317.04592 976.35745 2317.04592 908.27267 2198.62527 908.27267" style="fill:none; stroke:#f1f0ed; stroke-linecap:square; stroke-miterlimit:6.88336; stroke-width:4.13px;"/><line x1="2317.04592" y1="1160.28543" x2="2317.04592" y2="1056.35745" style="fill:none; stroke:#f1f0ed; stroke-linecap:square; stroke-miterlimit:6.88336; stroke-width:4.13px;"/><line x1="2198.62527" y1="1016.3575" x2="2317.04592" y2="1016.3575" style="fill:none; stroke:#f1f0ed; stroke-linecap:square; stroke-miterlimit:6.88336; stroke-width:4.13px;"/><line x1="1851.7925" y1="2565.40855" x2="1851.7925" y2="2637.79264" style="fill:none; stroke:#f1f0ed; stroke-linecap:square; stroke-miterlimit:6.88336; stroke-width:4.13px;"/><polyline points="1914.84171 2324.05854 1851.7925 2324.05854 1851.7925 2525.40852 1954.84169 2525.40852" style="fill:none; stroke:#f1f0ed; stroke-linecap:square; stroke-miterlimit:6.88336; stroke-width:4.13px;"/><line x1="1811.79251" y1="2411.52232" x2="1622.24102" y2="2411.52232" style="fill:none; stroke:#f1f0ed; stroke-linecap:square; stroke-miterlimit:6.88336; stroke-width:4.13px;"/><line x1="1785.19647" y1="1770.5585" x2="1905.34779" y2="1809.75017" style="fill:none; stroke:#f1f0ed; stroke-linecap:square; stroke-miterlimit:6.88336; stroke-width:4.13px;"/><line x1="1731.08898" y1="1936.05718" x2="1851.24029" y2="1975.24885" style="fill:none; stroke:#f1f0ed; stroke-linecap:square; stroke-miterlimit:6.88336; stroke-width:4.13px;"/><line x1="1677.41182" y1="2100.2396" x2="1797.56314" y2="2139.43127" style="fill:none; stroke:#f1f0ed; stroke-linecap:square; stroke-miterlimit:6.88336; stroke-width:4.13px;"/><line x1="1838.81028" y1="2013.26855" x2="1797.56314" y2="2139.43127" style="fill:none; stroke:#f1f0ed; stroke-linecap:square; stroke-miterlimit:6.88336; stroke-width:4.13px;"/><line x1="1905.34779" y1="1809.75017" x2="1863.6703" y2="1937.22916" style="fill:none; stroke:#f1f0ed; stroke-linecap:square; stroke-miterlimit:6.88336; stroke-width:4.13px;"/><polyline points="1650.14421 2183.64309 1710.37812 2203.29055 1776.68524 2203.29055 1785.13313 2177.45097" style="fill:none; stroke:#f1f0ed; stroke-linecap:square; stroke-miterlimit:6.88336; stroke-width:4.13px;"/><path d="M1803.93282,1317.22115l59.37828,19.36836c6.3007,2.0552,9.74236,8.82899,7.68716,15.12969l-46.31244,141.98172c-1.73114,5.30722-6.89341,8.71972-12.45458,8.23304l-64.72181-5.66398" style="fill:none; stroke:#f1f0ed; stroke-linecap:square; stroke-miterlimit:6.88336; stroke-width:4.13px;"/><path d="M1557.10298,1479.60699l-109.28398-9.56375c-7.69361-.67329-12.75722-8.3333-10.36227-15.67559l29.41099-90.16614,21.4754,7.00497,30.28252-92.83808-21.47548-7.005,12.26093-37.58885c2.0552-6.3007,8.82899-9.74236,15.1297-7.68716l103.18873,33.65872" style="fill:none; stroke:#f1f0ed; stroke-linecap:square; stroke-miterlimit:6.88336; stroke-width:4.13px;"/><polyline points="1707.66169 1492.7828 1596.95072 1483.09418 1629.64962 1382.84799 1665.75763 1272.15034 1765.90471 1304.81691" style="fill:none; stroke:#f1f0ed; stroke-linecap:square; stroke-miterlimit:6.88336; stroke-width:4.13px;"/><line x1="1925.47025" y1="648.04819" x2="2097.87164" y2="704.2831" style="fill:none; stroke:#f1f0ed; stroke-linecap:square; stroke-miterlimit:6.88336; stroke-width:4.13px;"/><line x1="1677.99577" y1="567.32549" x2="1849.41402" y2="623.23971" style="fill:none; stroke:#f1f0ed; stroke-linecap:square; stroke-miterlimit:6.88336; stroke-width:4.13px;"/><line x1="1428.79394" y1="486.03935" x2="1601.93954" y2="542.51701" style="fill:none; stroke:#f1f0ed; stroke-linecap:square; stroke-miterlimit:6.88336; stroke-width:4.13px;"/><line x1="1179.80937" y1="404.82407" x2="1352.73771" y2="461.23087" style="fill:none; stroke:#f1f0ed; stroke-linecap:square; stroke-miterlimit:6.88336; stroke-width:4.13px;"/><polyline points="1103.75314 380.0156 1060.9205 366.04419 1099.85806 246.67191" style="fill:none; stroke:#f1f0ed; stroke-linecap:square; stroke-miterlimit:6.88336; stroke-width:4.13px;"/><line x1="2383.14485" y1="797.33522" x2="2422.08241" y2="677.96294" style="fill:none; stroke:#f1f0ed; stroke-linecap:square; stroke-miterlimit:6.88336; stroke-width:4.13px;"/><polyline points="2174.83732 597.31506 2135.89976 716.68734 2339.04295 782.9498" style="fill:none; stroke:#f1f0ed; stroke-linecap:square; stroke-miterlimit:6.88336; stroke-width:4.13px;"/><line x1="2007.91587" y1="542.86762" x2="1968.97831" y2="662.23991" style="fill:none; stroke:#f1f0ed; stroke-linecap:square; stroke-miterlimit:6.88336; stroke-width:4.13px;"/><line x1="1926.37969" y1="516.27167" x2="1887.44214" y2="635.64395" style="fill:none; stroke:#f1f0ed; stroke-linecap:square; stroke-miterlimit:6.88336; stroke-width:4.13px;"/><line x1="1678.90522" y1="435.54897" x2="1639.96766" y2="554.92125" style="fill:none; stroke:#f1f0ed; stroke-linecap:square; stroke-miterlimit:6.88336; stroke-width:4.13px;"/><line x1="1429.70339" y1="354.26283" x2="1390.76583" y2="473.63511" style="fill:none; stroke:#f1f0ed; stroke-linecap:square; stroke-miterlimit:6.88336; stroke-width:4.13px;"/><line x1="1180.71882" y1="273.04755" x2="1141.78126" y2="392.41984" style="fill:none; stroke:#f1f0ed; stroke-linecap:square; stroke-miterlimit:6.88336; stroke-width:4.13px;"/><path d="M1232.02269,681.48328l-37.59556,115.25796" style="fill:none; stroke:#f1f0ed; stroke-linecap:square; stroke-miterlimit:6.88336; stroke-width:4.13px;"/><path d="M1314.51098,708.3898l-37.59553,115.25797" style="fill:none; stroke:#f1f0ed; stroke-linecap:square; stroke-miterlimit:6.88336; stroke-width:4.13px;"/><polyline points="1352.53911 720.79404 1455.75016 754.46003 1418.15463 869.718" style="fill:none; stroke:#f1f0ed; stroke-linecap:square; stroke-miterlimit:6.88336; stroke-width:4.13px;"/><line x1="1232.02269" y1="681.48328" x2="1276.48286" y2="695.98556" style="fill:none; stroke:#f1f0ed; stroke-linecap:square; stroke-miterlimit:6.88336; stroke-width:4.13px;"/><path d="M1111.53271,769.70224l37.59554-115.25796,44.86632,14.63476" style="fill:none; stroke:#f1f0ed; stroke-linecap:square; stroke-miterlimit:6.88336; stroke-width:4.13px;"/><line x1="1432.68926" y1="874.45899" x2="1549.8635" y2="912.67958" style="fill:none; stroke:#f1f0ed; stroke-linecap:square; stroke-miterlimit:6.88336; stroke-width:4.13px;"/><line x1="1332.90167" y1="1180.38142" x2="1450.07591" y2="1218.60201" style="fill:none; stroke:#f1f0ed; stroke-linecap:square; stroke-miterlimit:6.88336; stroke-width:4.13px;"/><line x1="852.79077" y1="1153.25648" x2="806.20711" y2="1138.06154" style="fill:none; stroke:#f1f0ed; stroke-linecap:square; stroke-miterlimit:6.88336; stroke-width:4.13px;"/><line x1="1100.99543" y1="1234.21736" x2="928.84702" y2="1178.06496" style="fill:none; stroke:#f1f0ed; stroke-linecap:square; stroke-miterlimit:6.88336; stroke-width:4.13px;"/><line x1="1279.50379" y1="1292.44428" x2="1177.05168" y2="1259.02584" style="fill:none; stroke:#f1f0ed; stroke-linecap:square; stroke-miterlimit:6.88336; stroke-width:4.13px;"/><line x1="928.99209" y1="1048.63178" x2="890.81889" y2="1165.66072" style="fill:none; stroke:#f1f0ed; stroke-linecap:square; stroke-miterlimit:6.88336; stroke-width:4.13px;"/><line x1="1094.43661" y1="1102.59746" x2="1056.26342" y2="1219.6264" style="fill:none; stroke:#f1f0ed; stroke-linecap:square; stroke-miterlimit:6.88336; stroke-width:4.13px;"/><line x1="1177.19675" y1="1129.59266" x2="1139.02356" y2="1246.6216" style="fill:none; stroke:#f1f0ed; stroke-linecap:square; stroke-miterlimit:6.88336; stroke-width:4.13px;"/><line x1="1317.67698" y1="1175.41534" x2="1279.50379" y2="1292.44428" style="fill:none; stroke:#f1f0ed; stroke-linecap:square; stroke-miterlimit:6.88336; stroke-width:4.13px;"/><line x1="765.58761" y1="1420.90183" x2="718.91448" y2="1405.67772" style="fill:none; stroke:#f1f0ed; stroke-linecap:square; stroke-miterlimit:6.88336; stroke-width:4.13px;"/><polyline points="1005.75273 1494.04073 983.96733 1492.13422 841.64386 1445.71031" style="fill:none; stroke:#f1f0ed; stroke-linecap:square; stroke-miterlimit:6.88336; stroke-width:4.13px;"/><line x1="1265.04538" y1="1516.73215" x2="1085.44823" y2="1501.0151" style="fill:none; stroke:#f1f0ed; stroke-linecap:square; stroke-miterlimit:6.88336; stroke-width:4.13px;"/><line x1="1525.29996" y1="1539.50777" x2="1344.74087" y2="1523.70653" style="fill:none; stroke:#f1f0ed; stroke-linecap:square; stroke-miterlimit:6.88336; stroke-width:4.13px;"/><polyline points="1604.99545 1546.48214 1667.91234 1551.98818 1738.1831 1558.80315 1727.668 1678.95817" style="fill:none; stroke:#f1f0ed; stroke-linecap:square; stroke-miterlimit:6.88336; stroke-width:4.13px;"/><line x1="803.61573" y1="1433.30607" x2="764.59729" y2="1552.92634" style="fill:none; stroke:#f1f0ed; stroke-linecap:square; stroke-miterlimit:6.88336; stroke-width:4.13px;"/><line x1="1035.02759" y1="1618.34326" x2="1045.60048" y2="1497.52791" style="fill:none; stroke:#f1f0ed; stroke-linecap:square; stroke-miterlimit:6.88336; stroke-width:4.13px;"/><line x1="1208.51285" y1="1633.52545" x2="1219.08574" y2="1512.7101" style="fill:none; stroke:#f1f0ed; stroke-linecap:square; stroke-miterlimit:6.88336; stroke-width:4.13px;"/><line x1="1294.32023" y1="1641.03469" x2="1304.89312" y2="1520.21934" style="fill:none; stroke:#f1f0ed; stroke-linecap:square; stroke-miterlimit:6.88336; stroke-width:4.13px;"/><line x1="1554.57481" y1="1663.8103" x2="1565.1477" y2="1542.99495" style="fill:none; stroke:#f1f0ed; stroke-linecap:square; stroke-miterlimit:6.88336; stroke-width:4.13px;"/><line x1="1460.56757" y1="1186.43736" x2="1450.07591" y2="1218.60201" style="fill:none; stroke:#f1f0ed; stroke-linecap:square; stroke-miterlimit:6.88336; stroke-width:4.13px;"/><line x1="1525.60309" y1="987.0556" x2="1472.9718" y2="1148.40926" style="fill:none; stroke:#f1f0ed; stroke-linecap:square; stroke-miterlimit:6.88336; stroke-width:4.13px;"/><line x1="1549.8635" y1="912.67958" x2="1538.00732" y2="949.02749" style="fill:none; stroke:#f1f0ed; stroke-linecap:square; stroke-miterlimit:6.88336; stroke-width:4.13px;"/><path d="M1622.24102,2268.99062v368.80202h928.21199V1606.304c0-17.21366-11.01272-32.49689-27.34172-37.94427l-191.17103-63.77503,.04578-337.31521,179.01903,59.7211c19.42726,6.48097,39.49372-7.97842,39.49371-28.45821l-.00004-449.65511c0-17.31217-11.13705-32.65948-27.59577-38.02808L920.32622,188.11114l-153.07611,469.29096,665.43914,217.05689-99.78759,305.92243-672.20075-219.26245-164.48426,504.26538,443.3094,144.60131,810.44967,70.92473c32.07057,2.80659,53.16962,34.74782,43.1656,65.34713l-170.90031,522.7331Z" style="fill:none; stroke:#f1f0ed; stroke-linecap:square; stroke-miterlimit:6.88336; stroke-width:4.13px;"/><line x1="718.91448" y1="1405.67772" x2="679.89603" y2="1525.29798" style="fill:none; stroke:#f1f0ed; stroke-linecap:square; stroke-miterlimit:6.88336; stroke-width:4.13px;"/><line x1="844.38031" y1="1021.03261" x2="806.20711" y2="1138.06154" style="fill:none; stroke:#f1f0ed; stroke-linecap:square; stroke-miterlimit:6.88336; stroke-width:4.13px;"/><line x1="578.36074" y1="1213.55236" x2="762.04013" y2="1273.466" style="fill:none; stroke:#f1f0ed; stroke-linecap:square; stroke-miterlimit:6.88336; stroke-width:4.13px;"/><polyline points="1008.19413 1268.13164 787.28428 1196.07394 737.41717 1348.95334 984.28461 1429.47804 1197.4779 1448.13519" style="fill:none; stroke:#f1f0ed; stroke-linecap:square; stroke-miterlimit:6.88336; stroke-width:4.13px;"/><path d="M1238.13079,1451.69284l62.814,5.49703,23.86406-73.16069c2.05521-6.3007-1.38645-13.0745-7.68715-15.1297l-259.18077-84.54113" style="fill:none; stroke:#f1f0ed; stroke-linecap:square; stroke-miterlimit:6.88336; stroke-width:4.13px;"/><path d="M1484.13455,696.13421l16.818,5.4858,7.19562-22.06002,85.87325,28.01065-7.19566,22.06001,7.32726,2.39005c6.3007,2.0552,13.07449-1.38645,15.12969-7.68715l28.3194-86.81963c2.0552-6.3007-1.38645-13.0745-7.68715-15.1297l-223.49113-72.89967c-6.3007-2.0552-13.07449,1.38646-15.12969,7.68716l-28.31934,86.81964c-2.0552,6.3007,1.38646,13.07449,7.68716,15.12969l79.28522,25.86173" style="fill:none; stroke:#f1f0ed; stroke-linecap:square; stroke-miterlimit:6.88336; stroke-width:4.13px;"/><line x1="842.13996" y1="427.80966" x2="1008.11671" y2="481.94894" style="fill:none; stroke:#f1f0ed; stroke-linecap:square; stroke-miterlimit:6.88336; stroke-width:4.13px;"/><path d="M1061.97621,557.98735l179.73092,58.6257c6.3007,2.0552,13.07449-1.38646,15.12969-7.68716l28.22008-86.51527c2.0552-6.3007-1.38646-13.07449-7.68716-15.12969l-239.42003-78.09545c-6.3007-2.0552-13.07449,1.38645-15.12969,7.68715l-28.22012,86.51525c-2.0552,6.3007,1.38645,13.0745,7.68715,15.1297l23.2145,7.57224" style="fill:none; stroke:#f1f0ed; stroke-linecap:square; stroke-miterlimit:6.88336; stroke-width:4.13px;"/></g><g id="p"><polyline points="188.11114 715.40037 685.64808 715.40037 1322.588 923.16395 1366.33281 789.0539" style="fill:none; stroke:#30a87f; stroke-linecap:round; stroke-linejoin:round; stroke-width:8.24px;"/><polyline points="188.11114 884.63755 685.64808 884.63755 1272.38378 1076.02335 1228.35027 1211.01847" style="fill:none; stroke:#30a87f; stroke-linecap:round; stroke-linejoin:round; stroke-width:8.24px;"/><g><path d="M367.82182,694.28226l-4.67969,.54004c-.83984,0-1.58008-.50098-2.21973-1.5l-19.74023-31.74023,.90039,32.7002h-6.83984v-43.2002l4.67969-.54004c.87891,0,1.63965,.50098,2.28027,1.5l19.85938,31.68066-1.08008-32.64062h6.83984v43.2002Z" style="fill:#f1f0ed;"/><path d="M395.54155,695.00199c-5.08008,0-9.29102-1.84961-12.62988-5.5498-3.34082-3.69922-5.01074-9.09961-5.01074-16.2002,0-7.09961,1.7002-12.68945,5.10059-16.76953,3.39941-4.08008,8.49902-6.12012,15.2998-6.12012,5.12012,0,9.33984,1.83008,12.66016,5.49023,3.31934,3.66016,4.97949,9.04004,4.97949,16.13965,0,7.10059-1.7002,12.71094-5.09961,16.83008-3.40039,4.12012-8.5,6.17969-15.2998,6.17969Zm1.13965-5.75977c4.51953,0,7.68945-1.46973,9.50977-4.41016,1.82031-2.93945,2.73047-7.24902,2.73047-12.92969,0-5.67969-1.03027-9.72949-3.08984-12.15039-2.06055-2.41895-4.93066-3.62988-8.61035-3.62988-4.60059,0-7.7998,1.58105-9.59961,4.74023-1.64062,2.91992-2.45996,7.15039-2.45996,12.68945,0,5.54102,1.01953,9.54004,3.05957,12,2.04004,2.46094,4.86035,3.69043,8.45996,3.69043Z" style="fill:#f1f0ed;"/><path d="M426.02202,694.28226v-42.83984c3.11914-.48047,7.89844-.71973,14.33984-.71973,4.31934,0,7.63965,1.22949,9.95996,3.68945,2.31934,2.45996,3.47949,5.61035,3.47949,9.4502,0,2.63965-.63965,4.9707-1.91992,6.99023s-3.12012,3.5498-5.51953,4.58984l4.01953,9.35938c.71973,1.64062,1.62012,2.91016,2.7002,3.81055s2.23926,1.34961,3.47949,1.34961l-.95996,4.68066h-1.43945c-1.84082,0-3.65039-.48926-5.42969-1.4707-1.78027-.97949-3.11133-2.44922-3.99023-4.40918l-5.40039-11.94043c-.32031,.04004-.83984,.05957-1.55957,.05957h-4.91992v17.40039h-6.83984Zm6.83984-22.67969h10.08008c.55957-.2002,1.17871-.67969,1.85938-1.44043,1.2002-1.35938,1.7998-3.31934,1.7998-5.87988,0-5.43945-2.55957-8.16016-7.67969-8.16016-1.76074,0-3.78027,.10059-6.05957,.2998v15.18066Z" style="fill:#f1f0ed;"/><path d="M465.74077,694.28226v-42.90039c4.83887-.43945,10.29883-.65918,16.37988-.65918,5.15918,0,9.38965,1.78027,12.68945,5.33984,3.2998,3.56055,4.9502,8.87012,4.9502,15.92969,0,7.06055-1.7002,12.59961-5.09961,16.62012-3.40039,4.01953-8.60059,6.03027-15.60059,6.03027s-11.44043-.12012-13.31934-.36035Zm6.83984-5.28027c2.39941,.16016,5.04004,.24023,7.91992,.24023,4.51953,0,7.68945-1.46973,9.50977-4.41016,1.81934-2.93945,2.73047-7.24902,2.73047-12.92969,0-5.67969-1.03125-9.72949-3.09082-12.15039-2.06055-2.41895-4.92969-3.62988-8.60938-3.62988-1.64062,0-4.46094,.12012-8.45996,.36035v32.51953Z" style="fill:#f1f0ed;"/></g><g><path d="M335.24174,780.12406v-42.90088c4.83984-.43945,10.29883-.65918,16.38086-.65918,5.1582,0,9.38867,1.78027,12.68945,5.33984,3.29883,3.56055,4.94922,8.87012,4.94922,15.92969,0,7.06055-1.69922,12.59961-5.09961,16.62012-3.40039,4.02002-8.59961,6.03076-15.59961,6.03076s-11.44141-.12012-13.32031-.36035Zm6.83984-5.28076c2.40039,.16016,5.04102,.24023,7.91992,.24023,4.51953,0,7.68945-1.46973,9.50977-4.41016,1.82031-2.93945,2.73047-7.24902,2.73047-12.92969,0-5.67969-1.03125-9.72949-3.08984-12.15039-2.06055-2.41895-4.92969-3.62988-8.60938-3.62988-1.64062,0-4.46094,.12012-8.46094,.36035v32.51953Z" style="fill:#f1f0ed;"/><path d="M379.34135,780.12406v-42.84033c3.11914-.48047,7.89844-.71973,14.33984-.71973,4.31836,0,7.63867,1.22949,9.95898,3.68945s3.48047,5.61035,3.48047,9.4502c0,2.63965-.64062,4.9707-1.91992,6.99023-1.28125,2.01953-3.12109,3.5498-5.51953,4.58984l4.01953,9.35938c.71875,1.64062,1.61914,2.91016,2.69922,3.81055s2.24023,1.34961,3.48047,1.34961l-.96094,4.68115h-1.43945c-1.83984,0-3.65039-.48926-5.42969-1.4707-1.7793-.97949-3.11133-2.44971-3.99023-4.40967l-5.40039-11.94043c-.32031,.04004-.83984,.05957-1.55859,.05957h-4.91992v17.40088h-6.83984Zm6.83984-22.68018h10.08008c.55859-.2002,1.17773-.67969,1.85938-1.44043,1.19922-1.35938,1.79883-3.31934,1.79883-5.87988,0-5.43945-2.55859-8.16016-7.67969-8.16016-1.75977,0-3.7793,.10059-6.05859,.2998v15.18066Z" style="fill:#f1f0ed;"/><path d="M419.0601,780.12406v-43.20068h6.83984v43.20068h-6.83984Z" style="fill:#f1f0ed;"/><path d="M447.49956,778.50394l-14.82031-41.16064,7.01953-.83984,12.66016,36.71973,12.66016-36.71973,7.01953,.83984-15.29883,42.36084c-.48047,.16016-1.51172,.33984-3.0918,.54004-1.58008,.19922-2.88867,.2998-3.92969,.2998-1.03906,0-1.7793-.67969-2.21875-2.04004Z" style="fill:#f1f0ed;"/><path d="M478.81987,780.12406v-43.20068h6.83984v18h18.11914v-18h6.83984v43.20068h-6.83984v-19.44092h-18.11914v19.44092h-6.83984Z" style="fill:#f1f0ed;"/><path d="M522.4976,767.10404v-30.18066h6.83984v29.10059c0,2.87988,.70898,5.16992,2.13086,6.86914,1.41797,1.70117,3.60938,2.55078,6.57031,2.55078,6.07812,0,9.11914-3.12012,9.11914-9.36035v-29.16016h6.83984v28.08008c0,4.84082-1.38086,8.69043-4.14062,11.5498-2.75977,2.86084-6.74023,4.29053-11.93945,4.29053s-9.07031-1.22949-11.60938-3.68994c-2.54102-2.45996-3.81055-5.80957-3.81055-10.0498Z" style="fill:#f1f0ed;"/><path d="M562.39604,777.36381l2.09961-5.58008c4.12109,2.24023,7.56055,3.35938,10.32031,3.35938s4.86133-.53906,6.30078-1.61914,2.16016-2.55957,2.16016-4.44043c0-2.0791-.92188-3.73926-2.75977-4.97949-1.04102-.67969-1.91211-1.17969-2.61133-1.5s-1.7793-.79004-3.24023-1.41016c-1.45898-.62012-2.58984-1.12012-3.38867-1.5-.80078-.37988-1.75-.93945-2.84961-1.68066-1.10156-.73926-1.95117-1.48926-2.55078-2.25-1.56055-1.87891-2.33984-4.15918-2.33984-6.83984,0-3.71973,1.28906-6.73926,3.86914-9.05957,2.58008-2.31934,5.83008-3.48047,9.75-3.48047,2.40039,0,4.7207,.40039,6.96094,1.2002,2.24023,.80078,3.95898,1.60059,5.16016,2.40039l-2.40039,5.21973c-3.91992-2.04004-6.98047-3.06055-9.17969-3.06055-2.20117,0-3.96094,.53125-5.28125,1.59082-1.31836,1.05957-1.97852,2.4502-1.97852,4.16992,0,1.91992,.85938,3.45996,2.58008,4.62012,1.43945,.95996,3.09961,1.83984,4.97852,2.63965,1.88086,.80078,3.21094,1.37988,3.99023,1.74023,.78125,.35938,1.77148,.94043,2.9707,1.73926,1.19922,.80078,2.11914,1.60059,2.75977,2.40039,1.59961,2.08008,2.40039,4.52051,2.40039,7.32031,0,4.04004-1.43164,7.13086-4.29102,9.26953-2.85938,2.14111-6.60938,3.21045-11.25,3.21045s-8.69922-1.15918-12.17969-3.47998Z" style="fill:#f1f0ed;"/><path d="M600.19682,780.12406v-43.20068h25.01953v5.58008h-18.17969v13.08008h15.7793v5.21973h-15.7793v13.74023h19.37891l-.83984,5.58057h-25.37891Z" style="fill:#f1f0ed;"/><path d="M642.85698,780.12406v-37.80029h-12.78125v-5.40039h32.88086l-.83984,5.40039h-12.41992v37.80029h-6.83984Z" style="fill:#f1f0ed;"/></g><g><path d="M209.71733,774.68119l1.5-4.67969c.7998,.35986,2.10938,.75,3.92969,1.16992,1.81934,.41992,3.50977,.62988,5.07031,.62988,5.55957,0,8.33984-2.58008,8.33984-7.73975,0-2.76025-.66016-4.75977-1.98047-6-1.31934-1.23975-3.16992-1.86035-5.5498-1.86035s-4.37012,.28027-5.96973,.84033l-3.48047-3.6001,2.40039-17.28027h19.74023v5.04004h-13.7998l-1.26074,10.2002c1.52051-.15967,2.71973-.24023,3.60059-.24023,3.99902,0,7.18945,1.14014,9.56934,3.42041,2.37988,2.27979,3.57031,5.48975,3.57031,9.62988,0,4.13965-1.32031,7.28027-3.95996,9.41992-2.63965,2.14014-6.2207,3.20996-10.74023,3.20996-1.95996,0-4.0498-.24023-6.26953-.72021s-3.79004-.95996-4.70996-1.43994Z" style="fill:#30a87f;"/><path d="M240.19585,776.84135v-3.24023c0-2.11963,.44043-4.11914,1.32031-6,.87988-1.87939,1.96973-3.45898,3.27051-4.73975,1.29883-1.27979,2.71973-2.56982,4.25977-3.87012,1.53906-1.29932,2.95996-2.47949,4.25977-3.54004,1.2998-1.05908,2.38965-2.26953,3.27051-3.62988,.87891-1.35938,1.31934-2.75977,1.31934-4.2002,0-2.63965-.62988-4.48926-1.88965-5.5498-1.25977-1.05957-2.77051-1.58984-4.53027-1.58984-3.16016,0-6.26074,.93994-9.2998,2.81982l-1.98047-4.31982c1.40039-1.04004,3.29004-1.89014,5.66992-2.55029,2.37988-.65967,4.49023-.98975,6.33008-.98975,4.24023,0,7.38965,1.19043,9.4502,3.56982,2.05957,2.38037,3.08984,5.23047,3.08984,8.55029,0,1.91992-.58984,3.80957-1.76953,5.66992-1.18066,1.85986-2.62012,3.50977-4.32031,4.94971s-3.42969,2.84082-5.18945,4.2002c-4.2002,3.28027-6.40039,6.12012-6.60059,8.52002h17.04004v5.93994h-23.7002Z" style="fill:#30a87f;"/><path d="M271.99663,776.84135v-3.83984l6.2998-1.2002v-30.2998l-5.87988,3.71973-2.58008-4.62012,5.87988-3.71973c1.08008-.72021,2.01953-1.08008,2.82031-1.08008l6.24023,.66016v35.33984h6.35938l-.83984,5.04004h-18.2998Z" style="fill:#30a87f;"/></g><g><path d="M211.15776,862.43461l1.5-4.67969c.7998,.35938,2.10938,.75,3.92969,1.16992,1.81934,.41992,3.50977,.62988,5.07031,.62988,5.55957,0,8.33984-2.58008,8.33984-7.74023,0-2.75977-.66016-4.75977-1.98047-6-1.31934-1.23926-3.16992-1.86035-5.5498-1.86035s-4.37012,.28027-5.96973,.84082l-3.48047-3.60059,2.40039-17.28027h19.74023v5.04004h-13.7998l-1.26074,10.2002c1.52051-.15918,2.71973-.24023,3.60059-.24023,3.99902,0,7.18945,1.14062,9.56934,3.4209,2.37988,2.2793,3.57031,5.48926,3.57031,9.62988,0,4.13965-1.32031,7.28027-3.95996,9.41992s-6.2207,3.20996-10.74023,3.20996c-1.95996,0-4.0498-.24023-6.26953-.7207-2.21973-.47949-3.79004-.95996-4.70996-1.43945Z" style="fill:#30a87f;"/><path d="M241.63628,864.59476v-3.24023c0-2.12012,.44043-4.11914,1.32031-6,.87988-1.87988,1.96973-3.45898,3.27051-4.74023,1.29883-1.2793,2.71973-2.56934,4.25977-3.87012,1.53906-1.29883,2.95996-2.47949,4.25977-3.54004,1.2998-1.05859,2.38965-2.26953,3.27051-3.62988,.87891-1.35938,1.31934-2.75977,1.31934-4.2002,0-2.63965-.62988-4.48926-1.88965-5.5498-1.25977-1.05957-2.77051-1.58984-4.53027-1.58984-3.16016,0-6.26074,.94043-9.2998,2.82031l-1.98047-4.32031c1.40039-1.04004,3.29004-1.88965,5.66992-2.5498s4.49023-.99023,6.33008-.99023c4.24023,0,7.38965,1.19043,9.4502,3.57031,2.05957,2.37988,3.08984,5.23047,3.08984,8.5498,0,1.91992-.58984,3.80957-1.76953,5.66992-1.18066,1.86035-2.62012,3.50977-4.32031,4.9502-1.7002,1.43945-3.42969,2.84082-5.18945,4.2002-4.2002,3.28027-6.40039,6.12012-6.60059,8.51953h17.04004v5.94043h-23.7002Z" style="fill:#30a87f;"/><path d="M285.91655,865.31449c-3.68066,0-6.7793-1.74902-9.2998-5.25-2.51953-3.5-3.78027-8.56934-3.78027-15.20996,0-6.63965,1.33984-11.91016,4.02051-15.80957,2.67969-3.90039,6.61914-5.85059,11.82031-5.85059,3.67969,0,6.7793,1.75,9.2998,5.25,2.51953,3.50098,3.78027,8.57031,3.78027,15.20996,0,6.64062-1.34082,11.91016-4.02051,15.81055-2.68066,3.89941-6.62012,5.84961-11.82031,5.84961Zm1.08008-5.04004c5.52051,0,8.28027-5.63965,8.28027-16.91992,0-5.31934-.71094-9.16992-2.12988-11.5498-1.4209-2.37988-3.27051-3.57031-5.5498-3.57031-5.52051,0-8.28027,5.63965-8.28027,16.91992,0,5.32031,.70996,9.1709,2.12988,11.5498,1.41992,2.38086,3.27051,3.57031,5.5498,3.57031Z" style="fill:#30a87f;"/></g><g><path d="M208.27788,692.56791l1.5-4.67969c.7998,.35986,2.10938,.75,3.92969,1.16992,1.81934,.41992,3.50977,.62988,5.07031,.62988,5.55957,0,8.33984-2.58008,8.33984-7.73975,0-2.76025-.66016-4.75977-1.98047-6-1.31934-1.23975-3.16992-1.86035-5.5498-1.86035s-4.37012,.28027-5.96973,.84033l-3.48047-3.6001,2.40039-17.28027h19.74023v5.04004h-13.7998l-1.26074,10.2002c1.52051-.15967,2.71973-.24023,3.60059-.24023,3.99902,0,7.18945,1.14014,9.56934,3.42041,2.37988,2.27979,3.57031,5.48975,3.57031,9.62988,0,4.13965-1.32031,7.28027-3.95996,9.41992-2.63965,2.14014-6.2207,3.20996-10.74023,3.20996-1.95996,0-4.0498-.24023-6.26953-.72021s-3.79004-.95996-4.70996-1.43994Z" style="fill:#30a87f;"/><path d="M238.75639,694.72807v-3.24023c0-2.11963,.44043-4.11914,1.32031-6,.87988-1.87939,1.96973-3.45898,3.27051-4.73975,1.29883-1.27979,2.71973-2.56982,4.25977-3.87012,1.53906-1.29932,2.95996-2.47949,4.25977-3.54004,1.2998-1.05908,2.38965-2.26953,3.27051-3.62988,.87891-1.35938,1.31934-2.75977,1.31934-4.2002,0-2.63965-.62988-4.48926-1.88965-5.5498-1.25977-1.05957-2.77051-1.58984-4.53027-1.58984-3.16016,0-6.26074,.93994-9.2998,2.81982l-1.98047-4.31982c1.40039-1.04004,3.29004-1.89014,5.66992-2.55029,2.37988-.65967,4.49023-.98975,6.33008-.98975,4.24023,0,7.38965,1.19043,9.4502,3.56982,2.05957,2.38037,3.08984,5.23047,3.08984,8.55029,0,1.91992-.58984,3.80957-1.76953,5.66992-1.18066,1.85986-2.62012,3.50977-4.32031,4.94971s-3.42969,2.84082-5.18945,4.2002c-4.2002,3.28027-6.40039,6.12012-6.60059,8.52002h17.04004v5.93994h-23.7002Z" style="fill:#30a87f;"/><path d="M268.33745,692.50785l1.85938-4.31982c3.04004,1.48047,5.99023,2.22021,8.85059,2.22021,2.85938,0,4.95898-.68994,6.2998-2.07031,1.33984-1.37988,2.00977-3.12939,2.00977-5.25,0-2.63965-.68066-4.479-2.04004-5.52002-.68066-.55957-1.34961-1.02002-2.00977-1.37988s-1.49121-.6001-2.49023-.71973c-1.7207-.19971-3.32031-.30029-4.7998-.30029l-.83984-4.62012c4.03906,0,7.01953-.45898,8.93945-1.37988,1.91992-.91943,2.87988-2.52002,2.87988-4.7998,0-2.28027-.65039-3.84961-1.94922-4.70996-1.30078-.85986-2.87109-1.29004-4.70996-1.29004-3.28027,0-6.40039,.74072-9.36035,2.21973l-1.86035-4.31982c.95996-.72021,2.73926-1.38965,5.33984-2.01025,2.60059-.61963,4.73047-.92969,6.39062-.92969,1.65918,0,3.18945,.17969,4.58984,.54004,1.39941,.35986,2.75,.92969,4.0498,1.70996,1.2998,.77979,2.34961,1.89014,3.15039,3.33008,.7998,1.43994,1.2002,2.96045,1.2002,4.56006,0,1.6001-.20117,2.93994-.60059,4.01953-.40039,1.08008-.85059,1.92041-1.34961,2.52002-.50098,.6001-1.09082,1.12061-1.77051,1.56006-.91992,.64062-1.71973,1.06055-2.39941,1.26025,1.71875,.68066,3.03906,1.56006,3.95996,2.64014,1.67969,1.95996,2.51953,4.5,2.51953,7.61963,0,4.12061-1.34082,7.21045-4.01953,9.27002-2.68066,2.06055-6.11133,3.09033-10.29004,3.09033-4.18066,0-8.03125-.97998-11.5498-2.94043Z" style="fill:#30a87f;"/></g><g><path d="M333.10698,861.0684l2.09961-5.58008c4.12012,2.24023,7.56055,3.35938,10.32031,3.35938s4.86035-.53906,6.2998-1.61914c1.44043-1.08008,2.16016-2.55957,2.16016-4.44043,0-2.0791-.9209-3.73926-2.75977-4.97949-1.04102-.67969-1.91113-1.17969-2.61035-1.5-.7002-.32031-1.78027-.79004-3.24023-1.41016s-2.58984-1.12012-3.38965-1.5c-.80078-.37988-1.75-.93945-2.84961-1.68066-1.10059-.73926-1.9502-1.48926-2.5498-2.25-1.56055-1.87891-2.34082-4.15918-2.34082-6.83984,0-3.71973,1.29004-6.73926,3.87012-9.05957,2.58008-2.31934,5.83008-3.48047,9.75-3.48047,2.40039,0,4.71973,.40039,6.95996,1.2002,2.24023,.80078,3.95996,1.60059,5.16016,2.40039l-2.39941,5.21973c-3.9209-2.04004-6.98145-3.06055-9.18066-3.06055-2.2002,0-3.95996,.53125-5.28027,1.59082-1.31934,1.05957-1.97949,2.4502-1.97949,4.16992,0,1.91992,.85938,3.45996,2.58008,4.62012,1.43945,.95996,3.09961,1.83984,4.97949,2.63965,1.87988,.80078,3.20996,1.37988,3.99023,1.74023,.78027,.35938,1.77051,.94043,2.96973,1.73926,1.2002,.80078,2.12012,1.60059,2.76074,2.40039,1.59863,2.08008,2.39941,4.52051,2.39941,7.32031,0,4.04004-1.43066,7.13086-4.29004,9.26953-2.86035,2.14062-6.61035,3.20996-11.25,3.20996-4.64062,0-8.69922-1.15918-12.17969-3.47949Z" style="fill:#f1f0ed;"/><path d="M388.42631,819.90824c3.83984,0,7.17969,1.04102,10.01953,3.12012l1.98047-2.75977,4.67969,.71973-3.59961,4.97949c3.03906,3.80078,4.55957,9.12012,4.55957,15.95996,0,6.84082-1.7002,12.32129-5.09961,16.44043-3.40039,4.12012-8.5,6.17969-15.2998,6.17969-3.7207,0-6.98047-.97949-9.78027-2.93945l-1.62012,2.21973h-5.04004l3.60059-5.04004c-3.20117-3.91992-4.80078-9.33887-4.80078-16.25977,0-6.91992,1.7002-12.41992,5.10059-16.5,3.39941-4.08008,8.49902-6.12012,15.2998-6.12012Zm-10.74023,9.87012c-1.83984,2.98047-2.75977,6.96973-2.75977,11.96973,0,5.00098,.62012,8.84082,1.86035,11.52051l18.23926-25.44043c-1.87988-1.67969-4.43945-2.51953-7.67969-2.51953-4.60059,0-7.82031,1.49023-9.66016,4.46973Zm1.68066,26.96973c1.75879,1.60059,4.03906,2.40039,6.83984,2.40039,2.79883,0,5.04883-.41992,6.75-1.26074,1.69922-.83984,2.98926-2.05957,3.87012-3.65918,1.71875-3.04004,2.58008-6.9502,2.58008-11.73047,0-4.7793-.60059-8.46973-1.80078-11.07031l-18.23926,25.32031Z" style="fill:#f1f0ed;"/><path d="M416.20659,863.82816v-42.83984c3.11914-.48047,7.89844-.71973,14.33984-.71973,4.31934,0,7.63965,1.22949,9.95996,3.68945,2.31934,2.45996,3.47949,5.61035,3.47949,9.4502,0,2.63965-.63965,4.9707-1.91992,6.99023s-3.12012,3.5498-5.51953,4.58984l4.01953,9.35938c.71973,1.64062,1.62012,2.91016,2.7002,3.81055s2.23926,1.34961,3.47949,1.34961l-.95996,4.68066h-1.43945c-1.84082,0-3.65039-.48926-5.42969-1.4707-1.78027-.97949-3.11133-2.44922-3.99023-4.40918l-5.40039-11.94043c-.32031,.04004-.83984,.05957-1.55957,.05957h-4.91992v17.40039h-6.83984Zm6.83984-22.67969h10.08008c.55957-.2002,1.17871-.67969,1.85938-1.44043,1.2002-1.35938,1.7998-3.31934,1.7998-5.87988,0-5.43945-2.55957-8.16016-7.67969-8.16016-1.76074,0-3.78027,.10059-6.05957,.2998v15.18066Z" style="fill:#f1f0ed;"/></g><circle cx="1228.35027" cy="1211.01847" r="12.40424" style="fill:#30a87f;"/><circle cx="1903.3171" cy="2581.60058" r="12.40424" style="fill:#2d74e6;"/><circle cx="1903.3171" cy="2424.3479" r="12.40424" style="fill:#2d74e6;"/><g><path d="M2648.11577,2402.57133l1.5-4.67969c.7998,.36035,2.10938,.75,3.92969,1.16992,1.81934,.41992,3.50977,.62988,5.07031,.62988,5.55957,0,8.33984-2.58008,8.33984-7.73926,0-2.76074-.66016-4.75977-1.98047-6-1.31934-1.24023-3.16992-1.86035-5.5498-1.86035s-4.37012,.28027-5.96973,.83984l-3.48047-3.59961,2.40039-17.28027h19.74023v5.04004h-13.7998l-1.26074,10.2002c1.52051-.16016,2.71973-.24023,3.60059-.24023,3.99902,0,7.18945,1.13965,9.56934,3.41992s3.57031,5.49023,3.57031,9.62988-1.32031,7.28027-3.95996,9.41992c-2.63965,2.14062-6.2207,3.20996-10.74023,3.20996-1.95996,0-4.0498-.24023-6.26953-.71973-2.21973-.48047-3.79004-.95996-4.70996-1.44043Z" style="fill:#2d74e6;"/><path d="M2692.63432,2405.45219c-3.68066,0-6.7793-1.75-9.2998-5.25-2.51953-3.5-3.78027-8.57031-3.78027-15.21094,0-6.63867,1.33984-11.90918,4.02051-15.80957,2.67969-3.90039,6.61914-5.84961,11.82031-5.84961,3.67969,0,6.7793,1.75,9.2998,5.25,2.51953,3.5,3.78027,8.57031,3.78027,15.20996s-1.34082,11.91016-4.02051,15.80957c-2.68066,3.90039-6.62012,5.85059-11.82031,5.85059Zm1.08008-5.04004c5.52051,0,8.28027-5.64062,8.28027-16.9209,0-5.31934-.71094-9.16895-2.12988-11.5498-1.4209-2.37891-3.27051-3.56934-5.5498-3.56934-5.52051,0-8.28027,5.63965-8.28027,16.91992,0,5.32031,.70996,9.16992,2.12988,11.5498s3.27051,3.57031,5.5498,3.57031Z" style="fill:#2d74e6;"/><path d="M2715.19487,2404.73148v-3.83984l6.2998-1.2002v-30.2998l-5.87988,3.71973-2.58008-4.62012,5.87988-3.71973c1.08008-.71973,2.01953-1.08008,2.82031-1.08008l6.24023,.66016v35.33984h6.35938l-.83984,5.04004h-18.2998Z" style="fill:#2d74e6;"/></g><g><path d="M2790.26518,2403.96488v-37.79883h-12.7793v-5.40039h32.87891l-.83984,5.40039h-12.41992v37.79883h-6.83984Z" style="fill:#f1f0ed;"/><path d="M2816.78471,2403.96488v-43.19922h25.01953v5.58008h-18.17969v13.08008h15.7793v5.21875h-15.7793v13.74023h19.38086l-.83984,5.58008h-25.38086Z" style="fill:#f1f0ed;"/><path d="M2852.72417,2403.96488v-43.19922h6.83984v37.43945h16.38086l-.83984,5.75977h-22.38086Z" style="fill:#f1f0ed;"/><path d="M2884.22417,2403.96488v-43.19922h6.83984v37.43945h16.38086l-.83984,5.75977h-22.38086Z" style="fill:#f1f0ed;"/><path d="M2913.44487,2390.94535v-30.17969h6.83984v29.09961c0,2.88086,.70898,5.16992,2.13086,6.86914,1.41797,1.70117,3.60938,2.55078,6.57031,2.55078,6.07812,0,9.11914-3.11914,9.11914-9.35938v-29.16016h6.83984v28.08008c0,4.83984-1.38086,8.68945-4.14062,11.54883-2.75977,2.86133-6.74023,4.29102-11.93945,4.29102s-9.07031-1.23047-11.60938-3.68945c-2.54102-2.46094-3.81055-5.81055-3.81055-10.05078Z" style="fill:#f1f0ed;"/><path d="M2953.34331,2401.20512l2.09961-5.58008c4.12109,2.24023,7.56055,3.35938,10.32031,3.35938s4.86133-.53906,6.30078-1.61914,2.16016-2.55859,2.16016-4.43945c0-2.08008-.92188-3.74023-2.75977-4.98047-1.04102-.67969-1.91211-1.17969-2.61133-1.5s-1.7793-.78906-3.24023-1.41016c-1.45898-.61914-2.58984-1.11914-3.38867-1.5-.80078-.37891-1.75-.93945-2.84961-1.67969-1.10156-.74023-1.95117-1.49023-2.55078-2.25-1.56055-1.87891-2.33984-4.16016-2.33984-6.83984,0-3.7207,1.28906-6.74023,3.86914-9.06055,2.58008-2.31836,5.83008-3.48047,9.75-3.48047,2.40039,0,4.7207,.40039,6.96094,1.20117s3.95898,1.59961,5.16016,2.40039l-2.40039,5.21875c-3.91992-2.03906-6.98047-3.06055-9.17969-3.06055-2.20117,0-3.96094,.53125-5.28125,1.5918-1.31836,1.05859-1.97852,2.44922-1.97852,4.16992,0,1.91992,.85938,3.45898,2.58008,4.61914,1.43945,.96094,3.09961,1.83984,4.97852,2.64062,1.88086,.80078,3.21094,1.37891,3.99023,1.74023,.78125,.35938,1.77148,.93945,2.9707,1.73828,1.19922,.80078,2.11914,1.60156,2.75977,2.40039,1.59961,2.08008,2.40039,4.52148,2.40039,7.32031,0,4.04102-1.43164,7.13086-4.29102,9.26953-2.85938,2.14062-6.60938,3.21094-11.25,3.21094s-8.69922-1.16016-12.17969-3.48047Z" style="fill:#f1f0ed;"/></g><line x1="1903.3171" y1="2424.3479" x2="3006.42107" y2="2424.3479" style="fill:none; stroke:#2d74e6; stroke-linecap:round; stroke-miterlimit:10; stroke-width:8.24px;"/><circle cx="1646.37896" cy="1610.97656" r="12.40424" style="fill:#30a87f;"/><circle cx="1445.0419" cy="1047.82801" r="12.40424" style="fill:#30a87f;"/><circle cx="1366.33281" cy="789.0539" r="12.40424" style="fill:#30a87f;"/><g><path d="M2648.11577,1589.20121l1.5-4.67969c.7998,.35938,2.10938,.75,3.92969,1.16992,1.81934,.41992,3.50977,.62988,5.07031,.62988,5.55957,0,8.33984-2.58008,8.33984-7.74023,0-2.75977-.66016-4.75977-1.98047-6-1.31934-1.23926-3.16992-1.86035-5.5498-1.86035s-4.37012,.28027-5.96973,.84082l-3.48047-3.60059,2.40039-17.28027h19.74023v5.04004h-13.7998l-1.26074,10.2002c1.52051-.15918,2.71973-.24023,3.60059-.24023,3.99902,0,7.18945,1.14062,9.56934,3.4209,2.37988,2.2793,3.57031,5.48926,3.57031,9.62988,0,4.13965-1.32031,7.28027-3.95996,9.41992s-6.2207,3.20996-10.74023,3.20996c-1.95996,0-4.0498-.24023-6.26953-.7207-2.21973-.47949-3.79004-.95996-4.70996-1.43945Z" style="fill:#30a87f;"/><path d="M2692.63432,1592.08109c-3.68066,0-6.7793-1.74902-9.2998-5.25-2.51953-3.5-3.78027-8.56934-3.78027-15.20996,0-6.63965,1.33984-11.91016,4.02051-15.80957,2.67969-3.90039,6.61914-5.85059,11.82031-5.85059,3.67969,0,6.7793,1.75,9.2998,5.25,2.51953,3.50098,3.78027,8.57031,3.78027,15.20996,0,6.64062-1.34082,11.91016-4.02051,15.81055-2.68066,3.89941-6.62012,5.84961-11.82031,5.84961Zm1.08008-5.04004c5.52051,0,8.28027-5.63965,8.28027-16.91992,0-5.31934-.71094-9.16992-2.12988-11.5498-1.4209-2.37988-3.27051-3.57031-5.5498-3.57031-5.52051,0-8.28027,5.63965-8.28027,16.91992,0,5.32031,.70996,9.1709,2.12988,11.5498,1.41992,2.38086,3.27051,3.57031,5.5498,3.57031Z" style="fill:#30a87f;"/><path d="M2728.33452,1592.08109c-4.08008,0-7.34082-.97949-9.78027-2.94043-2.43945-1.95898-3.65918-4.64941-3.65918-8.06934s1.99902-7.12988,6-11.12988c-3.52051-2.16016-5.28027-5.16016-5.28027-9,0-3.2793,1.23926-5.92969,3.71973-7.9502,2.47949-2.01953,5.66016-3.03027,9.54004-3.03027s6.97949,.88086,9.2998,2.64062c2.31934,1.75977,3.48047,4.05957,3.48047,6.89941,0,3.40039-1.7998,6.78027-5.40039,10.13965,4.08008,2.48145,6.12012,5.9209,6.12012,10.32031,0,3.60059-1.32031,6.52051-3.95996,8.75977-2.63965,2.24121-6,3.36035-10.08008,3.36035Zm-2.58008-20.04004c-1.04004,1.12012-1.83984,2.04004-2.39941,2.75977-1.48047,1.84082-2.2207,3.77051-2.2207,5.79004,0,2.02051,.60059,3.71094,1.80078,5.07031,1.19922,1.36035,2.97852,2.04004,5.33984,2.04004,2.35938,0,4.24902-.75,5.66992-2.25,1.41895-1.5,2.12988-3.27051,2.12988-5.31055,0-2.03906-1-3.79883-3-5.2793-2.00098-1.47949-4.44043-2.41992-7.32031-2.82031Zm5.45996-4.2002c.91992-.99902,1.62012-1.7998,2.10059-2.39941,1.2793-1.59961,1.91992-3.2793,1.91992-5.04004,0-1.75977-.53125-3.24023-1.58984-4.44043-1.06055-1.2002-2.63086-1.7998-4.70996-1.7998-2.08105,0-3.77148,.66016-5.07031,1.97949-1.30078,1.32031-1.9502,2.89062-1.9502,4.71094s.92969,3.35938,2.79004,4.61914c1.86035,1.26074,4.0293,2.05078,6.50977,2.37012Z" style="fill:#30a87f;"/></g><g><path d="M2783.54643,1590.59379v-43.2002h25.01953v5.58008h-18.17969v13.08008h15.7793v5.21973h-15.7793v13.74023h19.37891l-.83984,5.58008h-25.37891Z" style="fill:#f1f0ed;"/><path d="M2819.48589,1590.59379v-43.2002h6.83984v37.44043h16.38086l-.83984,5.75977h-22.38086Z" style="fill:#f1f0ed;"/><path d="M2850.98589,1590.59379v-43.2002h6.83984v37.44043h16.37891l-.83984,5.75977h-22.37891Z" style="fill:#f1f0ed;"/><path d="M2882.48589,1590.59379v-43.2002h6.83984v43.2002h-6.83984Z" style="fill:#f1f0ed;"/><path d="M2902.28471,1590.59379v-42.83984c3.11914-.48047,7.89844-.71973,14.33984-.71973,4.31836,0,7.63867,1.22949,9.95898,3.68945s3.48047,5.79004,3.48047,9.99023-1.39062,7.67969-4.16992,10.43945c-2.78125,2.76074-6.57031,4.14062-11.37109,4.14062-.95898,0-2.75977-.04004-5.39844-.12012v15.41992h-6.83984Zm6.83984-20.7002c.95898,.04004,2.51953,.06055,4.67969,.06055,3.2793,0,5.60938-.74023,6.99023-2.2207,1.37891-1.47949,2.06836-3.63867,2.06836-6.47949,0-2.83984-.63867-5.01953-1.91992-6.54004-1.2793-1.51953-3.40039-2.28027-6.35938-2.28027-1.79883,0-3.62109,.06055-5.45898,.17969v17.28027Z" style="fill:#f1f0ed;"/><path d="M2936.06401,1587.83402l2.09961-5.58008c4.11914,2.24023,7.56055,3.35938,10.32031,3.35938s4.85938-.53906,6.29883-1.61914c1.44141-1.08008,2.16016-2.55957,2.16016-4.44043,0-2.0791-.91992-3.73926-2.75977-4.97949-1.04102-.67969-1.91016-1.17969-2.60938-1.5-.70117-.32031-1.78125-.79004-3.24023-1.41016-1.46094-.62012-2.58984-1.12012-3.39062-1.5s-1.75-.93945-2.84961-1.68066c-1.09961-.73926-1.94922-1.48926-2.54883-2.25-1.56055-1.87891-2.3418-4.15918-2.3418-6.83984,0-3.71973,1.29102-6.73926,3.87109-9.05957,2.58008-2.31934,5.83008-3.48047,9.75-3.48047,2.40039,0,4.71875,.40039,6.95898,1.2002,2.24023,.80078,3.96094,1.60059,5.16016,2.40039l-2.39844,5.21973c-3.92188-2.04004-6.98242-3.06055-9.18164-3.06055s-3.95898,.53125-5.2793,1.59082-1.98047,2.4502-1.98047,4.16992c0,1.91992,.85938,3.45996,2.58008,4.62012,1.43945,.95996,3.09961,1.83984,4.98047,2.63965,1.87891,.80078,3.20898,1.37988,3.99023,1.74023,.7793,.35938,1.76953,.94043,2.96875,1.73926,1.20117,.80078,2.12109,1.60059,2.76172,2.40039,1.59766,2.08008,2.39844,4.52051,2.39844,7.32031,0,4.04004-1.42969,7.13086-4.28906,9.26953-2.86133,2.14062-6.61133,3.20996-11.25,3.20996-4.64062,0-8.69922-1.15918-12.17969-3.47949Z" style="fill:#f1f0ed;"/><path d="M2973.86284,1590.59379v-43.2002h25.01953v5.58008h-18.17969v13.08008h15.7793v5.21973h-15.7793v13.74023h19.38086l-.83984,5.58008h-25.38086Z" style="fill:#f1f0ed;"/></g><line x1="1646.37896" y1="1610.97656" x2="3026.42107" y2="1610.97656" style="fill:none; stroke:#30a87f; stroke-linecap:round; stroke-linejoin:round; stroke-width:8.24px;"/><g><path d="M2648.11577,2559.82426l1.5-4.67969c.7998,.35938,2.10938,.75,3.92969,1.16992,1.81934,.41992,3.50977,.62988,5.07031,.62988,5.55957,0,8.33984-2.58008,8.33984-7.73926,0-2.76074-.66016-4.75977-1.98047-6-1.31934-1.24023-3.16992-1.86133-5.5498-1.86133s-4.37012,.28125-5.96973,.84082l-3.48047-3.60059,2.40039-17.2793h19.74023v5.03906h-13.7998l-1.26074,10.20117c1.52051-.16016,2.71973-.24023,3.60059-.24023,3.99902,0,7.18945,1.13965,9.56934,3.41992,2.37988,2.2793,3.57031,5.49023,3.57031,9.62988s-1.32031,7.28027-3.95996,9.41992-6.2207,3.20996-10.74023,3.20996c-1.95996,0-4.0498-.24023-6.26953-.7207-2.21973-.47949-3.79004-.95898-4.70996-1.43945Z" style="fill:#2d74e6;"/><path d="M2692.63432,2562.70512c-3.68066,0-6.7793-1.75-9.2998-5.25-2.51953-3.5-3.78027-8.57031-3.78027-15.21094,0-6.63867,1.33984-11.91016,4.02051-15.80957,2.67969-3.90039,6.61914-5.85059,11.82031-5.85059,3.67969,0,6.7793,1.75,9.2998,5.25,2.51953,3.50098,3.78027,8.57031,3.78027,15.21094,0,6.63965-1.34082,11.91016-4.02051,15.80957-2.68066,3.89941-6.62012,5.85059-11.82031,5.85059Zm1.08008-5.04102c5.52051,0,8.28027-5.63965,8.28027-16.91992,0-5.31934-.71094-9.16992-2.12988-11.5498-1.4209-2.37988-3.27051-3.56934-5.5498-3.56934-5.52051,0-8.28027,5.63867-8.28027,16.91992,0,5.32031,.70996,9.16992,2.12988,11.54883,1.41992,2.38086,3.27051,3.57031,5.5498,3.57031Z" style="fill:#2d74e6;"/><path d="M2713.63432,2561.98441v-3.24023c0-2.11914,.44043-4.11914,1.32031-6,.87988-1.87891,1.96973-3.45898,3.27051-4.74023,1.29883-1.2793,2.71973-2.56934,4.25977-3.86914,1.53906-1.2998,2.95996-2.48047,4.25977-3.54102,1.2998-1.05859,2.38965-2.26953,3.27051-3.62891,.87891-1.35938,1.31934-2.75977,1.31934-4.20117,0-2.63867-.62988-4.48828-1.88965-5.54883s-2.77051-1.58984-4.53027-1.58984c-3.16016,0-6.26074,.93945-9.2998,2.81934l-1.98047-4.31934c1.40039-1.04102,3.29004-1.89062,5.66992-2.55078s4.49023-.99023,6.33008-.99023c4.24023,0,7.38965,1.19141,9.4502,3.57031,2.05957,2.38086,3.08984,5.23047,3.08984,8.55078,0,1.91992-.58984,3.80859-1.76953,5.66992-1.18066,1.85938-2.62012,3.50977-4.32031,4.94922s-3.42969,2.84082-5.18945,4.2002c-4.2002,3.28027-6.40039,6.12012-6.60059,8.52051h17.04004v5.93945h-23.7002Z" style="fill:#2d74e6;"/></g><g><path d="M2783.54643,2561.21781v-43.2002h6.83984v37.44043h16.37891l-.83984,5.75977h-22.37891Z" style="fill:#f1f0ed;"/><path d="M2812.76518,2548.19828v-30.18066h6.83984v29.10059c0,2.87988,.70898,5.16992,2.13086,6.86914,1.41797,1.70117,3.60938,2.55078,6.57031,2.55078,6.07812,0,9.11914-3.12012,9.11914-9.36035v-29.16016h6.83984v28.08008c0,4.84082-1.38086,8.69043-4.14062,11.5498-2.75977,2.86035-6.74023,4.29004-11.93945,4.29004s-9.07031-1.22949-11.60938-3.68945c-2.54102-2.45996-3.81055-5.80957-3.81055-10.0498Z" style="fill:#f1f0ed;"/><path d="M2888.72417,2561.21781l-4.67969,.54004c-.83984,0-1.58008-.50098-2.21875-1.5l-19.74023-31.74023,.90039,32.7002h-6.83984v-43.2002l4.67969-.54004c.87891,0,1.63867,.50098,2.2793,1.5l19.85938,31.68066-1.08008-32.64062h6.83984v43.2002Z" style="fill:#f1f0ed;"/><path d="M2896.70464,2561.21781l14.21875-42.2998c.32031-.83984,1.02148-1.25977,2.10156-1.25977,.43945,0,2.58008,.11914,6.41992,.35938l14.33984,43.2002h-7.02148l-3.89844-12.59961h-15.17969l-3.8418,12.59961h-7.13867Zm12.59961-18h11.88086l-6-19.44043v.36035l-5.88086,19.08008Z" style="fill:#f1f0ed;"/></g><line x1="1903.3171" y1="2581.60058" x2="2956.42107" y2="2581.60058" style="fill:none; stroke:#2d74e6; stroke-linecap:round; stroke-miterlimit:10; stroke-width:8.24px;"/><line x1="685.64808" y1="800.12116" x2="188.11114" y2="800.12116" style="fill:none; stroke:#30a87f; stroke-linecap:round; stroke-linejoin:round; stroke-width:8.24px;"/><line x1="685.64808" y1="800.12116" x2="1445.0419" y2="1047.82801" style="fill:none; stroke:#30a87f; stroke-linecap:round; stroke-linejoin:round; stroke-width:8.24px;"/><g><circle cx="1738.1831" cy="1401.59167" r="45.87227" style="fill:#ad184a;"/><path d="M1738.49105,1377.27691c-.75034,0-1.43419,.68376-1.43419,1.51967v45.59016c0,.83573,.68376,1.51967,1.43419,1.51967s1.43419-.68395,1.43419-1.51967v-45.59016c.08548-.83591-.51289-1.51967-1.43419-1.51967Zm-9.00406,16.07053c-1.33921-2.41248-3.88466-3.91315-6.64856-3.91315h-1.95658c-2.7639,0-5.30745,1.50068-6.64572,3.91315l-5.86213,10.54273c-.40661,.73315-.14247,1.65739,.59068,2.0658,.72422,.40366,1.65644,.14693,2.06865-.59068l5.86213-10.55222c.80457-1.43714,2.32424-2.33944,3.98638-2.33944h1.96513c1.65359,0,3.17327,.90231,3.98059,2.34599l5.86214,10.55222c.27354,.49389,.79593,.77883,1.32781,.77883,.25227,0,.50453-.06084,.73904-.19148,.73315-.40813,.99728-1.33256,.59068-2.0658l-5.86023-10.54595Zm-7.62685-5.43283c2.93202,0,5.23337-2.38589,5.23337-5.31885s-2.2985-5.31885-5.23337-5.31885-5.3179,2.38589-5.3179,5.31885,2.38304,5.31885,5.3179,5.31885Zm0-7.59836c1.25563,0,2.19403,1.02293,2.19403,2.27951s-.9403,2.27951-2.19403,2.27951c-1.25563,0-2.19403-1.02293-2.19403-2.27951s.9403-2.27951,2.19403-2.27951Zm4.55902,19.75574c-.83582,0-1.51967,.68385-1.51967,1.51967v7.59836h-6.07869v-7.59836c0-.84-.67967-1.51967-1.43419-1.51967s-1.6042,.68385-1.6042,1.51967v22.79508c0,.84,.67967,1.51967,1.43419,1.51967s1.43419-.67967,1.43419-1.51967v-12.15738h5.99321v12.15738c0,.84,.67967,1.51967,1.43419,1.51967,.8399,0,1.43419-.67967,1.43419-1.51967v-22.79508c.42646-.83582-.2574-1.51967-1.09321-1.51967Zm34.03115,.83582c-.37697-.75243-1.28508-1.05332-2.03921-.67967-.75091,.37545-1.05333,1.28792-.67967,2.03921l4.97939,9.96202h-14.8358l4.98073-9.95385c.37394-.75091,.07123-1.66404-.67967-2.03921-.75091-.37099-1.65929-.06975-2.03921,.67967l-5.99321,12.15738c-.2345,.47043-.21076,1.02958,.0653,1.47788,.18982,.44203,.68371,.71747,1.12062,.71747h3.7137v9.11803c0,.84,.67967,1.51967,1.43419,1.51967s1.43419-.67967,1.43419-1.51967v-9.11803h5.9932v9.11803c0,.84,.67967,1.51967,1.43419,1.51967,.83991,0,1.43419-.67967,1.43419-1.51967v-9.11803h3.7137c.52533,0,1.01533-.27307,1.29362-.72127,.27601-.44821,.29976-1.00773,.0653-1.47788l-5.39554-12.16175Zm7.48438,2.98236l-5.86213-10.55222c-1.25183-2.40298-3.79728-3.90366-6.56119-3.90366h-.44517c-2.75725,0-5.30365,1.49783-6.64287,3.90936l-5.86213,10.55222c-.40661,.73315-.14247,1.65739,.59068,2.0658,.72422,.40366,1.65644,.14693,2.06865-.59068l5.86213-10.55222c.80999-1.44283,2.32966-2.34514,3.9918-2.34514h.4369c1.65644,0,3.18181,.89784,3.98344,2.34504l5.86213,10.55222c.27925,.49484,.80163,.77978,1.24803,.77978,.25227,0,.50453-.06084,.73904-.19148,.81863-.40689,1.08457-1.41368,.59068-2.06903Zm-12.72725-15.97555c2.93202,0,5.23337-2.38589,5.23337-5.31885s-2.21302-5.31885-5.23337-5.31885-5.31885,2.38589-5.31885,5.31885,2.46947,5.31885,5.31885,5.31885Zm0-7.59836c1.25563,0,2.19403,1.02293,2.19403,2.27951s-.85482,2.27951-2.19403,2.27951-2.19403-1.02293-2.19403-2.27951,1.02578-2.27951,2.19403-2.27951Z" style="fill:#f1f0ed;"/></g><g><circle cx="1529.17878" cy="759.43976" r="45.87227" style="fill:#50a833;"/><path d="M1558.42904,743.307c-.77167-.50292-1.8073-.29458-2.30834,.47365l-6.74378,10.22431c-2.82918,4.18439-6.7042,5.48336-11.26046,3.74377l-1.04167-.4-23.70843,24.91677c-.28323,.29458-.65771,.47688-1.0224,.50125-.27677,.01627-.51448-.06835-.69021-.24417l-2.23647-2.23647c-.18229-.18229-.26698-.4199-.2474-.71292,.02279-.35969,.19865-.73407,.47209-.99448l24.94802-23.70843-.38417-1.03188c-1.72188-4.6271-.49167-8.40003,3.6396-11.19796l10.324-6.81149c.76844-.50781,.98-1.54167,.47209-2.30938-.50792-.7699-1.53959-.9798-2.30834-.47365l-10.34171,6.82878c-5.11148,3.46356-6.95836,8.43128-5.26773,14.07297l-23.38551,22.22926c-.87907,.84469-1.42605,2.01459-1.4948,3.19793-.07815,1.24688,.35167,2.41042,1.21771,3.27501l2.23959,2.23751c.7948,.79479,1.83647,1.22188,2.97189,1.22188,.09117,0,.19052-.00326,.2849-.00813,1.18855-.0765,2.36043-.62823,3.22293-1.52188l22.21884-23.35426c5.55107,1.68334,10.66671-.22625,14.14589-5.37085l6.7594-10.24067c.50365-.76479,.29532-1.88979-.47552-2.30646Zm-44.2606,21.17717c.68052,0,1.32188-.4199,1.56563-1.09688,.31583-.86584-.13021-1.82084-.99625-2.13543-8.22878-2.99689-10.86942-9.78858-11.71005-13.56985-1.25626-5.66565-.01302-10.38754,1.03865-11.43755,.13021-.13021,.32229-.13667,.47209-.13344,.29656,.02615,.60594,.18135,.88302,.45427l18.25007,17.41674c.6675,.63636,1.72188,.61198,2.35418-.05533,.64271-.66134,.61146-1.72384-.05521-2.35926l-18.22091-17.38653c-.8075-.80896-1.85209-1.30209-2.9396-1.39167-1.16667-.09106-2.30626,.30448-3.10105,1.1-2.36657,2.36876-3.21637,8.74587-1.93355,14.52193,.98657,4.44793,4.09897,12.43755,13.82297,15.96882,.195,.0625,.3825,.10416,.57,.10416Zm25.78136,.41667c-.66417-.63313-1.71876-.61032-2.35418,.05535-.63813,.66573-.61209,1.72084,.05535,2.35626l10.79171,10.30108c.79448,.7975,.97355,1.96563,.3875,2.55418l-2.26251,2.26043c-.29302,.29458-.67073,.35646-.95396,.345-.59261-.0114-1.21771-.31573-1.73855-.87886l-10.20733-9.91358c-.66094-.63969-1.71251-.62667-2.3573,.03255-.64146,.66084-.62844,1.71563,.03256,2.35626l10.14171,9.849c1.07813,1.16875,2.55939,1.8573,4.06043,1.88646,.04,.0043,.07125,.0043,.1025,.0043,1.26355,0,2.42188-.46709,3.27501-1.32188l2.26251-2.26043c1.8948-1.89792,1.72189-5.15627-.41677-7.29482l-10.81869-10.33129Zm-1.64584-15.84381c.33208,.36781,.78792,.555,1.24376,.555,.39719,0,.79448-.14,1.11042-.42479l11.19796-10.01775c.68698-.61365,.74563-1.57292,.13344-2.35313-.62188-.69177-1.68022-.74219-2.35418-.13021l-11.2064,10.01671c-.6875,.61459-.73958,1.66667-.125,2.35418Zm4.84377,4.84377c.31584,.28479,.71302,.42479,1.11042,.42479,.45584,0,.91167-.18719,1.24376-.555l10.01879-11.19796c.61208-.68688,.55355-1.73959-.13344-2.35313-.67719-.60875-1.7323-.55667-2.35417,.13021l-10.01879,11.19796c-.61657,.68646-.55407,1.73855,.13344,2.35313Z" style="fill:#f1f0ed;"/></g><g><circle cx="1456.83328" cy="626.01483" r="45.87227" style="fill:#ad184a;"/><path d="M1457.14124,601.70008c-.75034,0-1.43419,.68376-1.43419,1.51967v45.59016c0,.83573,.68376,1.51967,1.43419,1.51967s1.43419-.68395,1.43419-1.51967v-45.59016c.08548-.83591-.51289-1.51967-1.43419-1.51967Zm-9.00406,16.07053c-1.33921-2.41248-3.88466-3.91315-6.64856-3.91315h-1.95658c-2.7639,0-5.30745,1.50068-6.64572,3.91315l-5.86213,10.54273c-.40661,.73315-.14247,1.65739,.59068,2.0658,.72422,.40366,1.65644,.14693,2.06865-.59068l5.86213-10.55222c.80457-1.43714,2.32424-2.33944,3.98638-2.33944h1.96513c1.65359,0,3.17327,.90231,3.98059,2.34599l5.86214,10.55222c.27354,.49389,.79593,.77883,1.32781,.77883,.25227,0,.50453-.06084,.73904-.19148,.73315-.40813,.99728-1.33256,.59068-2.0658l-5.86023-10.54595Zm-7.62685-5.43283c2.93202,0,5.23337-2.38589,5.23337-5.31885s-2.2985-5.31885-5.23337-5.31885-5.3179,2.38589-5.3179,5.31885,2.38304,5.31885,5.3179,5.31885Zm0-7.59836c1.25563,0,2.19403,1.02293,2.19403,2.27951s-.9403,2.27951-2.19403,2.27951c-1.25563,0-2.19403-1.02293-2.19403-2.27951s.9403-2.27951,2.19403-2.27951Zm4.55902,19.75574c-.83582,0-1.51967,.68385-1.51967,1.51967v7.59836h-6.07869v-7.59836c0-.84-.67967-1.51967-1.43419-1.51967s-1.6042,.68385-1.6042,1.51967v22.79508c0,.84,.67967,1.51967,1.43419,1.51967s1.43419-.67967,1.43419-1.51967v-12.15738h5.99321v12.15738c0,.84,.67967,1.51967,1.43419,1.51967,.8399,0,1.43419-.67967,1.43419-1.51967v-22.79508c.42646-.83582-.2574-1.51967-1.09321-1.51967Zm34.03115,.83582c-.37697-.75243-1.28508-1.05332-2.03921-.67967-.75091,.37545-1.05333,1.28792-.67967,2.03921l4.97939,9.96202h-14.8358l4.98073-9.95385c.37394-.75091,.07123-1.66404-.67967-2.03921-.75091-.37099-1.65929-.06975-2.03921,.67967l-5.99321,12.15738c-.2345,.47043-.21076,1.02958,.0653,1.47788,.18982,.44203,.68371,.71747,1.12062,.71747h3.7137v9.11803c0,.84,.67967,1.51967,1.43419,1.51967s1.43419-.67967,1.43419-1.51967v-9.11803h5.9932v9.11803c0,.84,.67967,1.51967,1.43419,1.51967,.83991,0,1.43419-.67967,1.43419-1.51967v-9.11803h3.7137c.52533,0,1.01533-.27307,1.29362-.72127,.27601-.44821,.29976-1.00773,.0653-1.47788l-5.39554-12.16175Zm7.48438,2.98236l-5.86213-10.55222c-1.25183-2.40298-3.79728-3.90366-6.56119-3.90366h-.44517c-2.75725,0-5.30365,1.49783-6.64287,3.90936l-5.86213,10.55222c-.40661,.73315-.14247,1.65739,.59068,2.0658,.72422,.40366,1.65644,.14693,2.06865-.59068l5.86213-10.55222c.80999-1.44283,2.32966-2.34514,3.9918-2.34514h.4369c1.65644,0,3.18181,.89784,3.98344,2.34504l5.86213,10.55222c.27925,.49484,.80163,.77978,1.24803,.77978,.25227,0,.50453-.06084,.73904-.19148,.81863-.40689,1.08457-1.41368,.59068-2.06903Zm-12.72725-15.97555c2.93202,0,5.23337-2.38589,5.23337-5.31885s-2.21302-5.31885-5.23337-5.31885-5.31885,2.38589-5.31885,5.31885,2.46947,5.31885,5.31885,5.31885Zm0-7.59836c1.25563,0,2.19403,1.02293,2.19403,2.27951s-.85482,2.27951-2.19403,2.27951-2.19403-1.02293-2.19403-2.27951,1.02578-2.27951,2.19403-2.27951Z" style="fill:#f1f0ed;"/></g><g><circle cx="1710.33061" cy="1136.11115" r="45.87227" style="fill:#777;"/><path d="M1681.99728,1112.77781h13.33333c.91667,0,1.66667,.74583,1.66667,1.66667v11.66667h13.33333c.91667,0,1.66667,.75,1.66667,1.66667v15h13.33333c.91667,0,1.66667,.75,1.66667,1.66667v11.66667h11.66667c.92125,0,1.66667,.75,1.66667,1.66667,0,.91667-.74542,1.66667-1.66667,1.66667h-13.33333c-.91667,0-1.66667-.75-1.66667-1.66667v-11.66667h-13.33333c-.92125,0-1.66667-.74542-1.66667-1.66667v-15h-13.33333c-.91667,0-1.66667-.75-1.66667-1.66667v-11.66667h-11.66667c-.91667,0-1.66667-.74583-1.66667-1.66667,0-.92083,.75-1.66667,1.66667-1.66667Z" style="fill:#f1f0ed;"/></g><g><circle cx="1756.20288" cy="919.50895" r="45.87227" style="fill:#777;"/><path d="M1727.86955,896.17562h13.33333c.91667,0,1.66667,.74583,1.66667,1.66667v11.66667h13.33333c.91667,0,1.66667,.75,1.66667,1.66667v15h13.33333c.91667,0,1.66667,.75,1.66667,1.66667v11.66667h11.66667c.92125,0,1.66667,.75,1.66667,1.66667s-.74542,1.66667-1.66667,1.66667h-13.33333c-.91667,0-1.66667-.75-1.66667-1.66667v-11.66667h-13.33333c-.92125,0-1.66667-.74542-1.66667-1.66667v-15h-13.33333c-.91667,0-1.66667-.75-1.66667-1.66667v-11.66667h-11.66667c-.91667,0-1.66667-.74583-1.66667-1.66667,0-.92083,.75-1.66667,1.66667-1.66667Z" style="fill:#f1f0ed;"/></g><g><circle cx="1936.03357" cy="972.73195" r="45.87227" style="fill:#777;"/><path d="M1958.53357,957.7318h-45c-4.14258,0-7.5,3.35742-7.5,7.39453v29.89453c0,4.34765,3.35742,7.71094,7.5,7.71094h45c4.14258,0,7.5-3.35742,7.5-7.39453v-30.10547c0-4.13672-3.36328-7.5-7.5-7.5Zm-28.33594,41.25h-10.82812v-7.5c0-2.06719,1.68281-3.75,3.75-3.75h3.33398c2.06719,0,3.75,1.68281,3.75,3.75v7.5h-.00586Zm22.5,0h-10.83399v-7.5c0-2.06719,1.68281-3.75,3.75-3.75h3.33399c2.06719,0,3.75,1.68281,3.75,3.75v7.5Zm9.58594-3.75c0,2.06719-1.68281,3.75-3.75,3.75h-2.08359v-7.5c0-4.14258-3.35742-7.5-7.5-7.5h-3.33399c-4.14258,0-7.5,3.35742-7.5,7.5v7.5h-4.16836v-7.5c0-4.14258-3.35742-7.5-7.5-7.5h-3.32812c-4.14258,0-7.5,3.35742-7.5,7.5v7.5h-2.08594c-2.06719,0-3.75-1.68281-3.75-3.75v-30c0-2.06719,1.68281-3.75,3.75-3.75h45c2.06719,0,3.75,1.68281,3.75,3.75v30Zm-37.5-28.125c-3.62109,.01172-6.5625,2.94141-6.5625,6.5625s2.94141,6.55078,6.5625,6.5625c3.62695-.01373,6.5625-2.94492,6.5625-6.45703s-2.94141-6.65625-6.5625-6.66797Zm.01172,9.375c-1.55859-.01172-2.82422-1.26562-2.82422-2.8125,0-1.53516,1.26563-2.80078,2.8125-2.8125,1.55273,.01328,2.8125,1.27266,2.8125,2.8125,0,1.54688-1.26563,2.80078-2.80078,2.8125Zm22.48828-9.375c-3.62695,.0135-6.5625,2.94492-6.5625,6.45703s2.93555,6.54844,6.5625,6.45703c3.62695-.01373,6.5625-2.94492,6.5625-6.45703s-2.94141-6.44531-6.5625-6.45703Zm.01172,9.375c-1.5586-.01172-2.82422-1.26562-2.82422-2.8125,0-1.53984,1.26094-2.79961,2.8125-2.8125,1.55273,.01328,2.8125,1.27266,2.8125,2.8125,0,1.54688-1.26562,2.80078-2.80078,2.8125Zm-30.56133-23.04961l6.17461-6.17344,6.17461,6.17461c.36445,.36563,.84492,.54844,1.32539,.54844s.95953-.18305,1.32539-.54938c.73242-.73242,.73242-1.91953,0-2.65078l-7.5-7.5c-.73242-.73242-1.91953-.73242-2.65078,0l-7.5,7.5c-.73242,.73242-.73242,1.91953,0,2.65078s1.91836,.73219,2.65078-.00023Zm31.10039,0c.36621,.36621,.84598,.54984,1.32539,.54984s.95953-.18363,1.32539-.54984l7.5-7.5c.73242-.73242,.73242-1.91953,0-2.65078s-1.91953-.73242-2.65078,0l-6.17578,6.17461-6.17461-6.17461c-.73242-.73242-1.91953-.73242-2.65078,0s-.73242,1.91953,0,2.65078l7.50117,7.5Z" style="fill:#f1f0ed;"/></g><g><circle cx="1426.83328" cy="1305.55874" r="45.87227" style="fill:#50a833;"/><path d="M1456.08354,1289.42598c-.77167-.50292-1.8073-.29458-2.30834,.47365l-6.74378,10.22431c-2.82918,4.18439-6.7042,5.48336-11.26046,3.74377l-1.04167-.4-23.70843,24.91677c-.28323,.29458-.65771,.47688-1.0224,.50125-.27677,.01627-.51448-.06835-.69021-.24417l-2.23647-2.23647c-.18229-.18229-.26698-.4199-.2474-.71292,.02279-.35969,.19865-.73407,.47209-.99448l24.94802-23.70843-.38417-1.03188c-1.72188-4.6271-.49167-8.40003,3.6396-11.19796l10.324-6.81149c.76844-.50781,.98-1.54167,.47209-2.30938-.50792-.7699-1.53959-.9798-2.30834-.47365l-10.34171,6.82878c-5.11148,3.46356-6.95836,8.43128-5.26773,14.07297l-23.38551,22.22926c-.87907,.84469-1.42605,2.01459-1.4948,3.19793-.07815,1.24688,.35167,2.41042,1.21771,3.27501l2.23959,2.23751c.7948,.79479,1.83647,1.22188,2.97189,1.22188,.09117,0,.19052-.00326,.2849-.00813,1.18855-.0765,2.36043-.62823,3.22293-1.52188l22.21884-23.35426c5.55107,1.68334,10.66671-.22625,14.14589-5.37085l6.7594-10.24067c.50365-.76479,.29532-1.88979-.47552-2.30646Zm-44.2606,21.17717c.68052,0,1.32188-.4199,1.56563-1.09688,.31583-.86584-.13021-1.82084-.99625-2.13543-8.22878-2.99689-10.86942-9.78858-11.71005-13.56985-1.25626-5.66565-.01302-10.38754,1.03865-11.43755,.13021-.13021,.32229-.13667,.47209-.13344,.29656,.02615,.60594,.18135,.88302,.45427l18.25007,17.41674c.6675,.63636,1.72188,.61198,2.35418-.05533,.64271-.66134,.61146-1.72384-.05521-2.35926l-18.22091-17.38653c-.8075-.80896-1.85209-1.30209-2.9396-1.39167-1.16667-.09106-2.30626,.30448-3.10105,1.1-2.36657,2.36876-3.21637,8.74587-1.93355,14.52193,.98657,4.44793,4.09897,12.43755,13.82297,15.96882,.195,.0625,.3825,.10416,.57,.10416Zm25.78136,.41667c-.66417-.63313-1.71876-.61032-2.35418,.05535-.63813,.66573-.61209,1.72084,.05535,2.35626l10.79171,10.30108c.79448,.7975,.97355,1.96563,.3875,2.55418l-2.26251,2.26043c-.29302,.29458-.67073,.35646-.95396,.345-.59261-.0114-1.21771-.31573-1.73855-.87886l-10.20733-9.91358c-.66094-.63969-1.71251-.62667-2.3573,.03255-.64146,.66084-.62844,1.71563,.03256,2.35626l10.14171,9.849c1.07813,1.16875,2.55939,1.8573,4.06043,1.88646,.04,.0043,.07125,.0043,.1025,.0043,1.26355,0,2.42188-.46709,3.27501-1.32188l2.26251-2.26043c1.8948-1.89792,1.72189-5.15627-.41677-7.29482l-10.81869-10.33129Zm-1.64584-15.84381c.33208,.36781,.78792,.555,1.24376,.555,.39719,0,.79448-.14,1.11042-.42479l11.19796-10.01775c.68698-.61365,.74563-1.57292,.13344-2.35313-.62188-.69177-1.68022-.74219-2.35418-.13021l-11.2064,10.01671c-.6875,.61459-.73958,1.66667-.125,2.35418Zm4.84377,4.84377c.31584,.28479,.71302,.42479,1.11042,.42479,.45584,0,.91167-.18719,1.24376-.555l10.01879-11.19796c.61208-.68688,.55355-1.73959-.13344-2.35313-.67719-.60875-1.7323-.55667-2.35417,.13021l-10.01879,11.19796c-.61657,.68646-.55407,1.73855,.13344,2.35313Z" style="fill:#f1f0ed;"/></g><g><circle cx="962.00374" cy="621.68054" r="45.87227" style="fill:#d39e40;"/><path d="M961.06632,616.05554v22.5c0,1.03641,.83859,1.875,1.875,1.875s1.875-.83859,1.875-1.875v-22.5c0-1.03125-.84375-1.875-1.875-1.875s-1.875,.84375-1.875,1.875Zm-16.5-8.75391c1.53164-1.0275,3.39024-.42434,4.48945,.60516,1.67461,1.56281,3.91289,2.52375,6.28008,2.52375s4.71445-.95953,6.38555-2.52422c1.10074-1.03043,2.9625-1.63008,4.48945-.60516,1.28906,.78563,2.69531,1.25438,4.125,1.25438,4.67344,0,8.34844-4.27383,7.32891-9.12656-.56965-2.71289-2.74102-4.97578-5.43281-5.63906-.53672-.15938-1.16954-.23438-1.8961-.23438-1.30078,0-2.71524,.39117-3.8332,1.0684-1.54336,.93504-3.43594,.83977-4.78359-.42164-1.5668-1.5634-3.80508-2.52176-6.3832-2.52176s-4.60547,.95836-6.28125,2.52188c-1.34766,1.26211-3.23437,1.35586-4.78125,.42188-1.11328-.67734-2.53125-1.06875-3.83203-1.06875-.61523,0-1.25156,.0753-1.89609,.23414-2.69062,.66305-4.86328,2.92617-5.43281,5.63906-1.01941,4.84945,2.65547,9.1268,7.22344,9.1268,1.63594,0,3.04688-.46875,4.23047-1.25391Zm-7.78359-7.10273c.51563-2.45391,3.40547-3.6668,5.55-2.36719,1.26094,.76289,2.67891,1.16719,4.10859,1.16719,1.92187,0,3.76055-.73078,5.17852-2.05781,2.15156-2.01328,5.49023-2.01445,7.6418-.00023,1.41797,1.32656,3.25664,2.05781,5.17852,2.05781,1.42852,0,2.85-.40348,4.10977-1.16707,2.14101-1.29609,5.0332-.09109,5.55,2.36836,.33399,1.58906-.3232,2.69648-.74461,3.21563-2.77851,3.42305-5.38359-.39434-8.80078-.39434-1.90547,0-3.8332,.78258-5.29101,2.14805-2.15391,2.0168-5.49258,2.01562-7.64414-.00023-1.46321-1.35961-3.38508-2.14828-5.29524-2.14828-1.38281,0-2.71406,.40301-3.85078,1.16566-2.70937,1.82613-6.41133-.56449-5.69062-3.98754Zm16.78359,15.85664v22.5c0,1.03125,.84375,1.875,1.875,1.875s1.875-.84375,1.875-1.875v-22.5c0-1.03125-.84375-1.875-1.98047-1.875s-1.76953,.84375-1.76953,1.875Zm28.125-5.625h-7.5c-1.03125,0-1.875,.84375-1.875,1.875v28.125c0,4.14258-3.35742,7.5-7.5,7.5h-18.75c-4.14258,0-7.5-3.35742-7.5-7.5v-28.125c0-1.03125-.83906-1.875-1.875-1.875s-1.875,.84375-1.875,1.875v28.125c0,6.21328,5.03672,11.25,11.25,11.25h18.75c5.05312,0,9.27656-3.35391,10.69805-7.93945l10.37226-5.18555c3.17578-1.59375,5.17969-4.82813,5.17969-8.37891v-10.37109c0-5.17969-4.19531-9.375-9.375-9.375Zm5.625,19.74609c0,2.14453-1.19063,4.06992-3.10898,5.02969l-8.14102,4.06407v-25.08984h5.625c3.10547,0,5.625,2.51953,5.625,5.625v10.37109Zm-41.25-14.12109v22.5c0,1.03125,.84375,1.875,1.875,1.875s1.875-.84375,1.875-1.875v-22.5c0-1.03125-.84375-1.875-1.875-1.875s-1.875,.84375-1.875,1.875Z" style="fill:#f1f0ed;"/></g></g><g id="q"><g><path d="M1705.49565,2165.45219l.59961-1.87207c.32031,.14453,.84375,.30078,1.57227,.46875,.72754,.16797,1.4043,.25195,2.02832,.25195,2.22363,0,3.33594-1.03223,3.33594-3.09668,0-1.10352-.26465-1.90332-.79199-2.39941-.52832-.49609-1.26855-.74414-2.2207-.74414-.95117,0-1.74805,.1123-2.3877,.33594l-1.3916-1.44043,.95996-6.91211h7.89551v2.0166h-5.51953l-.50391,4.08008c.60742-.06445,1.08789-.09668,1.43945-.09668,1.59961,0,2.87598,.45605,3.82812,1.36816s1.42773,2.19629,1.42773,3.85254c0,1.65527-.52734,2.91211-1.58398,3.76758-1.05566,.85645-2.4873,1.28418-4.2959,1.28418-.78418,0-1.62012-.0957-2.50781-.28809s-1.51562-.38379-1.88379-.57617Z" style="fill:#f1f0ed;"/><path d="M1723.30327,2166.60453c-1.47266,0-2.71191-.7002-3.71973-2.09961-1.00879-1.40039-1.5127-3.42871-1.5127-6.08496,0-2.65527,.53613-4.76367,1.6084-6.32324,1.07129-1.56055,2.64746-2.33984,4.72754-2.33984,1.47266,0,2.71289,.69922,3.7207,2.09961s1.51172,3.42773,1.51172,6.08398-.53613,4.76367-1.6084,6.32422c-1.07129,1.55957-2.64746,2.33984-4.72754,2.33984Zm.43164-2.01562c2.20801,0,3.3125-2.25684,3.3125-6.76855,0-2.12793-.28418-3.66797-.85254-4.62012-.56738-.95117-1.30762-1.42773-2.21973-1.42773-2.20801,0-3.31152,2.25586-3.31152,6.76758,0,2.12891,.2832,3.66895,.85156,4.62012,.56738,.95215,1.30762,1.42871,2.21973,1.42871Z" style="fill:#f1f0ed;"/><path d="M1731.94292,2165.45219l.59961-1.87207c.32031,.14453,.84375,.30078,1.57227,.46875,.72754,.16797,1.4043,.25195,2.02832,.25195,2.22363,0,3.33594-1.03223,3.33594-3.09668,0-1.10352-.26465-1.90332-.79199-2.39941-.52832-.49609-1.26855-.74414-2.2207-.74414-.95117,0-1.74805,.1123-2.3877,.33594l-1.3916-1.44043,.95996-6.91211h7.89551v2.0166h-5.51953l-.50391,4.08008c.60742-.06445,1.08789-.09668,1.43945-.09668,1.59961,0,2.87598,.45605,3.82812,1.36816s1.42773,2.19629,1.42773,3.85254c0,1.65527-.52734,2.91211-1.58398,3.76758-1.05566,.85645-2.4873,1.28418-4.2959,1.28418-.78418,0-1.62012-.0957-2.50781-.28809s-1.51562-.38379-1.88379-.57617Z" style="fill:#f1f0ed;"/></g><g><path d="M1239.78471,1585.01078l.59961-1.87207c.32031,.14453,.84375,.30078,1.57227,.46875s1.4043,.25195,2.0293,.25195c2.22266,0,3.33594-1.03223,3.33594-3.09668,0-1.10352-.26562-1.90332-.79297-2.39941s-1.26758-.74414-2.2207-.74414c-.95117,0-1.74805,.1123-2.38672,.33594l-1.39258-1.44043,.96094-6.91211h7.89453v2.0166h-5.51953l-.50391,4.08008c.60742-.06445,1.08789-.09668,1.43945-.09668,1.59961,0,2.87695,.45605,3.82812,1.36816,.95312,.91211,1.42773,2.19629,1.42773,3.85254,0,1.65527-.52734,2.91211-1.58398,3.76758-1.05469,.85645-2.48633,1.28418-4.29492,1.28418-.78516,0-1.62109-.0957-2.50781-.28809-.88867-.19238-1.51562-.38379-1.88477-.57617Z" style="fill:#f1f0ed;"/><path d="M1252.60112,1585.87504v-1.53613l2.51953-.47949v-12.12012l-2.35156,1.4873-1.0332-1.84766,2.35352-1.48828c.43164-.28809,.80664-.43164,1.12695-.43164l2.49609,.26367v14.13672h2.54492l-.33594,2.01562h-7.32031Z" style="fill:#f1f0ed;"/><path d="M1267.14409,1586.16312c-1.47266,0-2.71094-.7002-3.71875-2.09961-1.00977-1.40039-1.51367-3.42871-1.51367-6.08496,0-2.65527,.53711-4.76367,1.60938-6.32324,1.07031-1.56055,2.64648-2.33984,4.72656-2.33984,1.47266,0,2.71289,.69922,3.7207,2.09961s1.51172,3.42773,1.51172,6.08398-.53516,4.76367-1.60742,6.32422c-1.07227,1.55957-2.64844,2.33984-4.72852,2.33984Zm.43164-2.01562c2.20898,0,3.3125-2.25684,3.3125-6.76855,0-2.12793-.2832-3.66797-.85156-4.62012-.56836-.95117-1.30859-1.42773-2.2207-1.42773-2.20703,0-3.31055,2.25586-3.31055,6.76758,0,2.12891,.2832,3.66895,.85156,4.62012,.56641,.95215,1.30664,1.42871,2.21875,1.42871Z" style="fill:#f1f0ed;"/></g><g><path d="M725.06499,1487.91996l.59961-1.87207c.32031,.14453,.84375,.30078,1.57227,.46875,.72754,.16797,1.4043,.25195,2.02832,.25195,2.22363,0,3.33594-1.03223,3.33594-3.09668,0-1.10352-.26465-1.90332-.79199-2.39941-.52832-.49609-1.26855-.74414-2.2207-.74414-.95117,0-1.74805,.1123-2.3877,.33594l-1.3916-1.44043,.95996-6.91211h7.89551v2.0166h-5.51953l-.50391,4.08008c.60742-.06445,1.08789-.09668,1.43945-.09668,1.59961,0,2.87598,.45605,3.82812,1.36816s1.42773,2.19629,1.42773,3.85254c0,1.65527-.52734,2.91211-1.58398,3.76758-1.05566,.85645-2.4873,1.28418-4.2959,1.28418-.78418,0-1.62012-.0957-2.50781-.28809s-1.51562-.38379-1.88379-.57617Z" style="fill:#f1f0ed;"/><path d="M737.88042,1488.78422v-1.53613l2.52051-.47949v-12.12012l-2.35254,1.4873-1.03223-1.84766,2.35254-1.48828c.43164-.28809,.80762-.43164,1.12793-.43164l2.49609,.26367v14.13672h2.54395l-.33594,2.01562h-7.32031Z" style="fill:#f1f0ed;"/><path d="M746.6646,1485.06449l-.02441-1.53613,6.36035-10.6084c.22363-.36719,.53613-.55176,.93555-.55176l2.68848,.33594v10.34375h2.06348l-.33594,2.0166h-1.72754v3.71973h-2.56836v-3.71973h-7.3916Zm7.46387-10.00781l-4.46387,7.99121h4.46387v-7.99121Z" style="fill:#f1f0ed;"/></g><g><path d="M851.80913,1101.73539l.59961-1.87207c.32031,.14453,.84375,.30078,1.57227,.46875,.72754,.16797,1.4043,.25195,2.02832,.25195,2.22363,0,3.33594-1.03223,3.33594-3.09668,0-1.10352-.26465-1.90332-.79199-2.39941-.52832-.49609-1.26855-.74414-2.2207-.74414-.95117,0-1.74805,.1123-2.3877,.33594l-1.3916-1.44043,.95996-6.91211h7.89551v2.0166h-5.51953l-.50391,4.08008c.60742-.06445,1.08789-.09668,1.43945-.09668,1.59961,0,2.87598,.45605,3.82812,1.36816s1.42773,2.19629,1.42773,3.85254c0,1.65527-.52734,2.91211-1.58398,3.76758-1.05566,.85645-2.4873,1.28418-4.2959,1.28418-.78418,0-1.62012-.0957-2.50781-.28809s-1.51562-.38379-1.88379-.57617Z" style="fill:#f1f0ed;"/><path d="M864.62456,1102.59965v-1.53613l2.52051-.47949v-12.12012l-2.35254,1.4873-1.03223-1.84766,2.35254-1.48828c.43164-.28809,.80762-.43164,1.12793-.43164l2.49609,.26367v14.13672h2.54395l-.33594,2.01562h-7.32031Z" style="fill:#f1f0ed;"/><path d="M874.53667,1102.59965c0-1.12012,.21582-2.27148,.64746-3.45605,.43262-1.18359,.95996-2.25586,1.58398-3.21582s1.24805-1.87988,1.87207-2.75977c1.48828-2.09668,2.23242-3.62402,2.23242-4.58398h-7.08008v-2.25684h9.83984v1.29688c0,1.66406-.74414,3.58398-2.23145,5.75977-.62402,.91211-1.24805,1.83984-1.87207,2.78418s-1.15234,1.97949-1.58398,3.10742c-.43262,1.12793-.64844,2.23633-.64844,3.32422h-2.75977Z" style="fill:#f1f0ed;"/></g><g><path d="M1100.2935,1181.12113l.59961-1.87207c.32031,.14453,.84375,.30078,1.57227,.46875,.72754,.16797,1.4043,.25195,2.02832,.25195,2.22363,0,3.33594-1.03223,3.33594-3.09668,0-1.10352-.26465-1.90332-.79199-2.39941-.52832-.49609-1.26855-.74414-2.2207-.74414-.95117,0-1.74805,.1123-2.3877,.33594l-1.3916-1.44043,.95996-6.91211h7.89551v2.0166h-5.51953l-.50391,4.08008c.60742-.06445,1.08789-.09668,1.43945-.09668,1.59961,0,2.87598,.45605,3.82812,1.36816s1.42773,2.19629,1.42773,3.85254c0,1.65527-.52734,2.91211-1.58398,3.76758-1.05566,.85645-2.4873,1.28418-4.2959,1.28418-.78418,0-1.62012-.0957-2.50781-.28809s-1.51562-.38379-1.88379-.57617Z" style="fill:#f1f0ed;"/><path d="M1113.10893,1181.98539v-1.53613l2.52051-.47949v-12.12012l-2.35254,1.4873-1.03223-1.84766,2.35254-1.48828c.43164-.28809,.80762-.43164,1.12793-.43164l2.49609,.26367v14.13672h2.54395l-.33594,2.01562h-7.32031Z" style="fill:#f1f0ed;"/><path d="M1124.31694,1182.27348l-.19238-2.04004c1.08789,0,2.03223-.16797,2.83203-.50391s1.41602-.78418,1.84863-1.34375c.71973-.91211,1.18359-1.9043,1.3916-2.97656-1.05566,.62402-2.16797,.93652-3.33594,.93652s-2.21973-.45996-3.15625-1.37988c-.93555-.91992-1.4043-2.16797-1.4043-3.74414s.44434-2.93164,1.33203-4.06836c.88867-1.13574,2.18848-1.7041,3.90039-1.7041s3.05566,.58008,4.03223,1.74023c.97559,1.16016,1.46387,2.82812,1.46387,5.00391,0,3.23242-.83203,5.7207-2.49609,7.46387-1.66406,1.74414-3.73633,2.61621-6.21582,2.61621Zm5.56836-13.24805c-.19238-.49609-.48828-.87988-.88867-1.15234-.40039-.27148-.94434-.40723-1.63184-.40723-.68848,0-1.27148,.33203-1.75195,.99512-.48047,.66406-.71973,1.55273-.71973,2.66406,0,1.1123,.23145,1.9248,.69531,2.43652s1.10449,.76758,1.91992,.76758c1.15234,0,2.08887-.30371,2.80859-.91211,.03223-.51172,.04785-1.00781,.04785-1.4873,0-.48047-.03223-.95996-.0957-1.44043-.06445-.47949-.19238-.96777-.38379-1.46387Z" style="fill:#f1f0ed;"/></g><g><path d="M1236.29057,758.57719l.59961-1.87207c.32031,.14453,.84375,.30078,1.57227,.46875s1.4043,.25195,2.0293,.25195c2.22266,0,3.33594-1.03223,3.33594-3.09668,0-1.10352-.26562-1.90332-.79297-2.39941s-1.26758-.74414-2.2207-.74414c-.95117,0-1.74805,.1123-2.38672,.33594l-1.39258-1.44043,.96094-6.91211h7.89453v2.0166h-5.51953l-.50391,4.08008c.60742-.06445,1.08789-.09668,1.43945-.09668,1.59961,0,2.87695,.45605,3.82812,1.36816,.95312,.91211,1.42773,2.19629,1.42773,3.85254,0,1.65527-.52734,2.91211-1.58398,3.76758-1.05469,.85645-2.48633,1.28418-4.29492,1.28418-.78516,0-1.62109-.0957-2.50781-.28809-.88867-.19238-1.51562-.38379-1.88477-.57617Z" style="fill:#f1f0ed;"/><path d="M1248.48198,759.44144v-1.2959c0-.84766,.17578-1.64746,.5293-2.40039,.35156-.75195,.78711-1.38379,1.30664-1.89551s1.08789-1.02832,1.70508-1.54785c.61523-.52051,1.18359-.99219,1.70312-1.41602s.95703-.9082,1.30859-1.45215,.52734-1.10449,.52734-1.68066c0-1.05566-.25195-1.79492-.75586-2.21973-.50391-.42383-1.10742-.63574-1.8125-.63574-1.26367,0-2.50391,.37598-3.71875,1.12793l-.79297-1.72754c.56055-.41602,1.31641-.75684,2.26953-1.02051,.95117-.26367,1.79492-.39551,2.53125-.39551,1.69531,0,2.95508,.47559,3.7793,1.42773s1.23633,2.0918,1.23633,3.41992c0,.76758-.23633,1.52344-.70703,2.26758-.47266,.74414-1.04883,1.4043-1.72852,1.98047s-1.37305,1.13574-2.07617,1.67969c-1.67969,1.3125-2.56055,2.44824-2.64062,3.4082h6.81641v2.37598h-9.48047Z" style="fill:#f1f0ed;"/><path d="M1260.4351,755.72172l-.02539-1.53613,6.36133-10.6084c.22266-.36719,.53516-.55176,.93555-.55176l2.6875,.33594v10.34375h2.06445l-.33594,2.0166h-1.72852v3.71973h-2.56836v-3.71973h-7.39062Zm7.46289-10.00781l-4.46289,7.99121h4.46289v-7.99121Z" style="fill:#f1f0ed;"/></g><g><path d="M1153.3062,736.78471l.59961-1.87207c.32031,.14453,.84375,.30078,1.57227,.46875s1.4043,.25195,2.0293,.25195c2.22266,0,3.33594-1.03223,3.33594-3.09668,0-1.10352-.26562-1.90332-.79297-2.39941s-1.26758-.74414-2.2207-.74414c-.95117,0-1.74805,.1123-2.38672,.33594l-1.39258-1.44043,.96094-6.91211h7.89453v2.0166h-5.51953l-.50391,4.08008c.60742-.06445,1.08789-.09668,1.43945-.09668,1.59961,0,2.87695,.45605,3.82812,1.36816,.95312,.91211,1.42773,2.19629,1.42773,3.85254,0,1.65527-.52734,2.91211-1.58398,3.76758-1.05469,.85645-2.48633,1.28418-4.29492,1.28418-.78516,0-1.62109-.0957-2.50781-.28809-.88867-.19238-1.51562-.38379-1.88477-.57617Z" style="fill:#f1f0ed;"/><path d="M1165.4976,737.64896v-1.2959c0-.84766,.17578-1.64746,.5293-2.40039,.35156-.75195,.78711-1.38379,1.30664-1.89551s1.08789-1.02832,1.70508-1.54785c.61523-.52051,1.18359-.99219,1.70312-1.41602s.95703-.9082,1.30859-1.45215,.52734-1.10449,.52734-1.68066c0-1.05566-.25195-1.79492-.75586-2.21973-.50391-.42383-1.10742-.63574-1.8125-.63574-1.26367,0-2.50391,.37598-3.71875,1.12793l-.79297-1.72754c.56055-.41602,1.31641-.75684,2.26953-1.02051,.95117-.26367,1.79492-.39551,2.53125-.39551,1.69531,0,2.95508,.47559,3.7793,1.42773s1.23633,2.0918,1.23633,3.41992c0,.76758-.23633,1.52344-.70703,2.26758-.47266,.74414-1.04883,1.4043-1.72852,1.98047s-1.37305,1.13574-2.07617,1.67969c-1.67969,1.3125-2.56055,2.44824-2.64062,3.4082h6.81641v2.37598h-9.48047Z" style="fill:#f1f0ed;"/><path d="M1177.83354,736.78471l.59961-1.87207c.32031,.14453,.84375,.30078,1.57227,.46875s1.4043,.25195,2.0293,.25195c2.22266,0,3.33594-1.03223,3.33594-3.09668,0-1.10352-.26562-1.90332-.79297-2.39941s-1.26758-.74414-2.2207-.74414c-.95117,0-1.74805,.1123-2.38672,.33594l-1.39258-1.44043,.96094-6.91211h7.89453v2.0166h-5.51953l-.50391,4.08008c.60742-.06445,1.08789-.09668,1.43945-.09668,1.59961,0,2.87695,.45605,3.82812,1.36816,.95312,.91211,1.42773,2.19629,1.42773,3.85254,0,1.65527-.52734,2.91211-1.58398,3.76758-1.05469,.85645-2.48633,1.28418-4.29492,1.28418-.78516,0-1.62109-.0957-2.50781-.28809-.88867-.19238-1.51562-.38379-1.88477-.57617Z" style="fill:#f1f0ed;"/></g><g><path d="M1102.79839,327.87211l.59961-1.87207c.32031,.14453,.84375,.30078,1.57227,.46875s1.4043,.25195,2.0293,.25195c2.22266,0,3.33594-1.03223,3.33594-3.09668,0-1.10352-.26562-1.90332-.79297-2.39941s-1.26758-.74414-2.2207-.74414c-.95117,0-1.74805,.1123-2.38672,.33594l-1.39258-1.44043,.96094-6.91211h7.89453v2.0166h-5.51953l-.50391,4.08008c.60742-.06445,1.08789-.09668,1.43945-.09668,1.59961,0,2.87695,.45605,3.82812,1.36816,.95312,.91211,1.42773,2.19629,1.42773,3.85254,0,1.65527-.52734,2.91211-1.58398,3.76758-1.05469,.85645-2.48633,1.28418-4.29492,1.28418-.78516,0-1.62109-.0957-2.50781-.28809-.88867-.19238-1.51562-.38379-1.88477-.57617Z" style="fill:#f1f0ed;"/><path d="M1114.98979,328.73637v-1.2959c0-.84766,.17578-1.64746,.5293-2.40039,.35156-.75195,.78711-1.38379,1.30664-1.89551s1.08789-1.02832,1.70508-1.54785c.61523-.52051,1.18359-.99219,1.70312-1.41602s.95703-.9082,1.30859-1.45215,.52734-1.10449,.52734-1.68066c0-1.05566-.25195-1.79492-.75586-2.21973-.50391-.42383-1.10742-.63574-1.8125-.63574-1.26367,0-2.50391,.37598-3.71875,1.12793l-.79297-1.72754c.56055-.41602,1.31641-.75684,2.26953-1.02051,.95117-.26367,1.79492-.39551,2.53125-.39551,1.69531,0,2.95508,.47559,3.7793,1.42773s1.23633,2.0918,1.23633,3.41992c0,.76758-.23633,1.52344-.70703,2.26758-.47266,.74414-1.04883,1.4043-1.72852,1.98047s-1.37305,1.13574-2.07617,1.67969c-1.67969,1.3125-2.56055,2.44824-2.64062,3.4082h6.81641v2.37598h-9.48047Z" style="fill:#f1f0ed;"/><path d="M1132.96635,329.02445c-1.63281,0-2.93555-.3916-3.91211-1.17578s-1.46484-1.86035-1.46484-3.22852,.80078-2.85156,2.40039-4.45215c-1.4082-.86328-2.11133-2.06348-2.11133-3.59961,0-1.31152,.49609-2.37207,1.48828-3.17969s2.26367-1.21191,3.81445-1.21191c1.55273,0,2.79297,.35156,3.7207,1.05566s1.39258,1.62402,1.39258,2.75977c0,1.36035-.7207,2.71191-2.16016,4.05566,1.63086,.99316,2.44727,2.36816,2.44727,4.12891,0,1.43945-.52734,2.60742-1.58398,3.50391-1.05469,.89551-2.40039,1.34375-4.03125,1.34375Zm-1.03125-8.01562c-.41797,.44727-.73633,.81543-.96094,1.10352-.5918,.73633-.88867,1.50781-.88867,2.31641,0,.80762,.24023,1.4834,.7207,2.02734s1.19141,.81641,2.13672,.81641c.94336,0,1.69922-.2998,2.26758-.90039,.56836-.59961,.85156-1.30762,.85156-2.12402,0-.81543-.40039-1.51953-1.19922-2.11133-.80078-.5918-1.77734-.96875-2.92773-1.12793Zm2.18359-1.68066c.36719-.39941,.64648-.71973,.83984-.95996,.51172-.63965,.76758-1.31152,.76758-2.01562s-.21289-1.2959-.63672-1.77637c-.42383-.47949-1.05078-.71973-1.88281-.71973s-1.50781,.26367-2.0293,.79199c-.51953,.52832-.7793,1.15625-.7793,1.88379,0,.72852,.37305,1.34375,1.11523,1.84766,.74414,.50488,1.61328,.82031,2.60547,.94824Z" style="fill:#f1f0ed;"/></g><g><path d="M1929.78569,598.45268l.59961-1.87207c.32031,.14453,.84375,.30078,1.57227,.46875,.72754,.16797,1.4043,.25195,2.02832,.25195,2.22363,0,3.33594-1.03223,3.33594-3.09668,0-1.10352-.26465-1.90332-.79199-2.39941-.52832-.49609-1.26855-.74414-2.2207-.74414-.95117,0-1.74805,.1123-2.3877,.33594l-1.3916-1.44043,.95996-6.91211h7.89551v2.0166h-5.51953l-.50391,4.08008c.60742-.06445,1.08789-.09668,1.43945-.09668,1.59961,0,2.87598,.45605,3.82812,1.36816s1.42773,2.19629,1.42773,3.85254c0,1.65527-.52734,2.91211-1.58398,3.76758-1.05566,.85645-2.4873,1.28418-4.2959,1.28418-.78418,0-1.62012-.0957-2.50781-.28809s-1.51562-.38379-1.88379-.57617Z" style="fill:#f1f0ed;"/><path d="M1941.71342,598.42924l.74414-1.72852c1.21582,.59277,2.39551,.88867,3.54004,.88867,1.14355,0,1.9834-.27637,2.51953-.82812,.53613-.55273,.80371-1.25195,.80371-2.10059,0-1.05566-.27148-1.79102-.81543-2.20801-.27246-.22363-.54004-.4082-.80371-.55176-.26465-.14355-.59668-.24023-.99609-.28809-.68848-.08008-1.32812-.12012-1.91992-.12012l-.33691-1.84766c1.61621,0,2.80859-.18359,3.57617-.55176,.76855-.36816,1.15234-1.00879,1.15234-1.91992,0-.91211-.26074-1.54004-.78027-1.88477-.51953-.34375-1.14844-.51562-1.88379-.51562-1.3125,0-2.56055,.2959-3.74414,.8877l-.74414-1.72754c.38477-.28809,1.0957-.55566,2.13672-.80469,1.03906-.24707,1.8916-.37109,2.55566-.37109s1.27539,.07129,1.83594,.21582c.55957,.14355,1.09961,.37207,1.62012,.68359,.51953,.3125,.93945,.75586,1.25977,1.33203s.48047,1.18457,.48047,1.82422-.08105,1.17578-.24023,1.60742c-.16016,.43262-.33984,.76855-.54004,1.00879-.2002,.23926-.43652,.44824-.70801,.62402-.36816,.25586-.68848,.42383-.95996,.50391,.6875,.27246,1.21582,.62402,1.58398,1.05566,.67188,.78418,1.00781,1.7998,1.00781,3.04785,0,1.64844-.53613,2.88477-1.6084,3.70801-1.07129,.82422-2.44336,1.23633-4.11523,1.23633-1.67285,0-3.21289-.3916-4.62012-1.17578Z" style="fill:#f1f0ed;"/><path d="M1954.60112,599.31693v-1.2959c0-.84766,.17578-1.64746,.52832-2.40039,.35156-.75195,.78809-1.38379,1.30762-1.89551s1.08789-1.02832,1.7041-1.54785c.61621-.52051,1.18359-.99219,1.7041-1.41602,.51953-.42383,.95605-.9082,1.30762-1.45215,.35254-.54395,.52832-1.10449,.52832-1.68066,0-1.05566-.25195-1.79492-.75586-2.21973-.50391-.42383-1.1084-.63574-1.8125-.63574-1.26367,0-2.50391,.37598-3.71973,1.12793l-.79199-1.72754c.55957-.41602,1.31641-.75684,2.26855-1.02051,.95117-.26367,1.7959-.39551,2.53125-.39551,1.69629,0,2.95605,.47559,3.78027,1.42773s1.23633,2.0918,1.23633,3.41992c0,.76758-.23633,1.52344-.70801,2.26758-.47266,.74414-1.04883,1.4043-1.72852,1.98047s-1.37207,1.13574-2.07617,1.67969c-1.67969,1.3125-2.55957,2.44824-2.63965,3.4082h6.81641v2.37598h-9.48047Z" style="fill:#f1f0ed;"/></g><g><path d="M2239.73003,969.99418l.59961-1.87207c.32031,.14453,.84375,.30078,1.57227,.46875,.72754,.16797,1.4043,.25195,2.02832,.25195,2.22363,0,3.33594-1.03223,3.33594-3.09668,0-1.10352-.26465-1.90332-.79199-2.39941-.52832-.49609-1.26855-.74414-2.2207-.74414-.95117,0-1.74805,.1123-2.3877,.33594l-1.3916-1.44043,.95996-6.91211h7.89551v2.0166h-5.51953l-.50391,4.08008c.60742-.06445,1.08789-.09668,1.43945-.09668,1.59961,0,2.87598,.45605,3.82812,1.36816s1.42773,2.19629,1.42773,3.85254c0,1.65527-.52734,2.91211-1.58398,3.76758-1.05566,.85645-2.4873,1.28418-4.2959,1.28418-.78418,0-1.62012-.0957-2.50781-.28809s-1.51562-.38379-1.88379-.57617Z" style="fill:#f1f0ed;"/><path d="M2251.65776,969.97074l.74414-1.72852c1.21582,.59277,2.39551,.88867,3.54004,.88867,1.14355,0,1.9834-.27637,2.51953-.82812,.53613-.55273,.80371-1.25195,.80371-2.10059,0-1.05566-.27148-1.79102-.81543-2.20801-.27246-.22363-.54004-.4082-.80371-.55176-.26465-.14355-.59668-.24023-.99609-.28809-.68848-.08008-1.32812-.12012-1.91992-.12012l-.33691-1.84766c1.61621,0,2.80859-.18359,3.57617-.55176,.76855-.36816,1.15234-1.00879,1.15234-1.91992,0-.91211-.26074-1.54004-.78027-1.88477-.51953-.34375-1.14844-.51562-1.88379-.51562-1.3125,0-2.56055,.2959-3.74414,.8877l-.74414-1.72754c.38477-.28809,1.0957-.55566,2.13672-.80469,1.03906-.24707,1.8916-.37109,2.55566-.37109s1.27539,.07129,1.83594,.21582c.55957,.14355,1.09961,.37207,1.62012,.68359,.51953,.3125,.93945,.75586,1.25977,1.33203s.48047,1.18457,.48047,1.82422-.08105,1.17578-.24023,1.60742c-.16016,.43262-.33984,.76855-.54004,1.00879-.2002,.23926-.43652,.44824-.70801,.62402-.36816,.25586-.68848,.42383-.95996,.50391,.6875,.27246,1.21582,.62402,1.58398,1.05566,.67188,.78418,1.00781,1.7998,1.00781,3.04785,0,1.64844-.53613,2.88477-1.6084,3.70801-1.07129,.82422-2.44336,1.23633-4.11523,1.23633-1.67285,0-3.21289-.3916-4.62012-1.17578Z" style="fill:#f1f0ed;"/><path d="M2267.88139,961.06644c1.10449-.62402,2.24023-.93555,3.4082-.93555s2.23242,.46777,3.19238,1.40332c.95996,.93652,1.43945,2.2002,1.43945,3.79199,0,1.59277-.45996,2.96094-1.37988,4.10449s-2.25977,1.71582-4.01953,1.71582c-1.76074,0-3.13281-.58008-4.11621-1.74023-.98438-1.16016-1.47656-2.83594-1.47656-5.02832,0-1.69531,.23633-3.19922,.70801-4.51172,.47168-1.31152,1.11621-2.36719,1.93262-3.16797,1.66406-1.59961,3.71973-2.39941,6.16797-2.39941l.19141,2.04004c-.92773,0-1.75977,.12793-2.49609,.38379-.73535,.25586-1.30762,.55566-1.71582,.89941-.4082,.34473-.74805,.75586-1.01953,1.23633-.43262,.73633-.7041,1.47266-.81641,2.20801Zm.28809,6.49219c.19238,.50391,.49609,.8916,.91211,1.16406s.97949,.4082,1.69238,.4082c.71094,0,1.31543-.33691,1.81152-1.00879s.74414-1.5752,.74414-2.71191c0-1.13574-.24414-1.96387-.73242-2.4834-.48828-.52051-1.14746-.78027-1.97949-.78027-1.2002,0-2.16016,.30371-2.87988,.91211-.04785,.40039-.07227,.87988-.07227,1.43945,0,.56055,.03613,1.08496,.1084,1.57227,.07129,.48828,.2041,.98438,.39551,1.48828Z" style="fill:#f1f0ed;"/></g><g><path d="M2240.50932,1083.46l.59961-1.87207c.32031,.14453,.84375,.30078,1.57227,.46875,.72754,.16797,1.4043,.25195,2.02832,.25195,2.22363,0,3.33594-1.03223,3.33594-3.09668,0-1.10352-.26465-1.90332-.79199-2.39941-.52832-.49609-1.26855-.74414-2.2207-.74414-.95117,0-1.74805,.1123-2.3877,.33594l-1.3916-1.44043,.95996-6.91211h7.89551v2.0166h-5.51953l-.50391,4.08008c.60742-.06445,1.08789-.09668,1.43945-.09668,1.59961,0,2.87598,.45605,3.82812,1.36816s1.42773,2.19629,1.42773,3.85254c0,1.65527-.52734,2.91211-1.58398,3.76758-1.05566,.85645-2.4873,1.28418-4.2959,1.28418-.78418,0-1.62012-.0957-2.50781-.28809s-1.51562-.38379-1.88379-.57617Z" style="fill:#f1f0ed;"/><path d="M2252.43706,1083.43656l.74414-1.72852c1.21582,.59277,2.39551,.88867,3.54004,.88867,1.14355,0,1.9834-.27637,2.51953-.82812,.53613-.55273,.80371-1.25195,.80371-2.10059,0-1.05566-.27148-1.79102-.81543-2.20801-.27246-.22363-.54004-.4082-.80371-.55176-.26465-.14355-.59668-.24023-.99609-.28809-.68848-.08008-1.32812-.12012-1.91992-.12012l-.33691-1.84766c1.61621,0,2.80859-.18359,3.57617-.55176,.76855-.36816,1.15234-1.00879,1.15234-1.91992,0-.91211-.26074-1.54004-.78027-1.88477-.51953-.34375-1.14844-.51562-1.88379-.51562-1.3125,0-2.56055,.2959-3.74414,.8877l-.74414-1.72754c.38477-.28809,1.0957-.55566,2.13672-.80469,1.03906-.24707,1.8916-.37109,2.55566-.37109s1.27539,.07129,1.83594,.21582c.55957,.14355,1.09961,.37207,1.62012,.68359,.51953,.3125,.93945,.75586,1.25977,1.33203s.48047,1.18457,.48047,1.82422-.08105,1.17578-.24023,1.60742c-.16016,.43262-.33984,.76855-.54004,1.00879-.2002,.23926-.43652,.44824-.70801,.62402-.36816,.25586-.68848,.42383-.95996,.50391,.6875,.27246,1.21582,.62402,1.58398,1.05566,.67188,.78418,1.00781,1.7998,1.00781,3.04785,0,1.64844-.53613,2.88477-1.6084,3.70801-1.07129,.82422-2.44336,1.23633-4.11523,1.23633-1.67285,0-3.21289-.3916-4.62012-1.17578Z" style="fill:#f1f0ed;"/><path d="M2266.30913,1084.32426c0-1.12012,.21582-2.27148,.64746-3.45605,.43262-1.18359,.95996-2.25586,1.58398-3.21582s1.24805-1.87988,1.87207-2.75977c1.48828-2.09668,2.23242-3.62402,2.23242-4.58398h-7.08008v-2.25684h9.83984v1.29688c0,1.66406-.74414,3.58398-2.23145,5.75977-.62402,.91211-1.24805,1.83984-1.87207,2.78418s-1.15234,1.97949-1.58398,3.10742c-.43262,1.12793-.64844,2.23633-.64844,3.32422h-2.75977Z" style="fill:#f1f0ed;"/></g></g></g><g id="r"><g id="s"/><g id="t"/><g id="u"/><g id="v"/></g><g id="w"><g id="x"/><g id="y"/><g id="a`"/></g></svg>